<svg width="248" height="72" viewBox="0 0 248 72" fill="none" xmlns="http://www.w3.org/2000/svg">
<rect x="0.5" width="247" height="72" rx="8" fill="black"/>
<path d="M47.9834 42.8266C53.3959 39.8547 57.499 37.5901 57.8527 37.414C58.984 36.8124 60.1524 35.22 57.8527 33.9831C57.1102 33.5941 53.1125 31.4001 47.9834 28.5706L40.873 35.7514L47.9834 42.8264V42.8266Z" fill="#FFD900"/>
<path d="M40.8735 35.7515L18.2334 58.5693C18.7648 58.6397 19.3648 58.4988 20.0721 58.11C21.5571 57.2971 37.2998 48.6999 47.9839 42.8283L40.8735 35.7515Z" fill="#F43249"/>
<path d="M40.8735 35.7513L47.9839 28.6058C47.9839 28.6058 21.6645 14.2422 20.0721 13.3943C19.4722 13.039 18.7999 12.9334 18.1982 13.039L40.8735 35.7513Z" fill="#00EE76"/>
<path d="M40.8733 35.7514L18.198 13.0391C17.2777 13.2518 16.5 14.0649 16.5 15.7277V55.8807C16.5 57.4025 17.1018 58.4987 18.2331 58.6044L40.8733 35.7514Z" fill="#00D3FF"/>
<path d="M89.0449 43.1016V51.2461C88.7422 51.6465 88.2686 52.0859 87.624 52.5645C86.9893 53.0332 86.1445 53.4385 85.0898 53.7803C84.0352 54.1221 82.7217 54.293 81.1494 54.293C79.8115 54.293 78.5859 54.0684 77.4727 53.6191C76.3594 53.1602 75.3975 52.4912 74.5869 51.6123C73.7861 50.7334 73.166 49.6641 72.7266 48.4043C72.2871 47.1348 72.0674 45.6895 72.0674 44.0684V42.5889C72.0674 40.9775 72.2676 39.542 72.668 38.2822C73.0781 37.0127 73.6641 35.9385 74.4258 35.0596C75.1875 34.1807 76.1055 33.5166 77.1797 33.0674C78.2637 32.6084 79.4893 32.3789 80.8564 32.3789C82.6045 32.3789 84.0498 32.6719 85.1924 33.2578C86.3447 33.834 87.2334 34.6348 87.8584 35.6602C88.4834 36.6855 88.8789 37.8574 89.0449 39.1758H85.4414C85.3242 38.4336 85.0947 37.7695 84.7529 37.1836C84.4209 36.5977 83.9424 36.1387 83.3174 35.8066C82.7021 35.4648 81.9014 35.2939 80.915 35.2939C80.0654 35.2939 79.3184 35.4551 78.6738 35.7773C78.0293 36.0996 77.4922 36.5732 77.0625 37.1982C76.6426 37.8232 76.3252 38.585 76.1104 39.4834C75.8955 40.3818 75.7881 41.4072 75.7881 42.5596V44.0684C75.7881 45.2402 75.9102 46.2803 76.1543 47.1885C76.4082 48.0967 76.7695 48.8633 77.2383 49.4883C77.7168 50.1133 78.2979 50.5869 78.9814 50.9092C79.665 51.2217 80.4365 51.3779 81.2959 51.3779C82.1357 51.3779 82.8242 51.3096 83.3613 51.1729C83.8984 51.0264 84.3232 50.8555 84.6357 50.6602C84.958 50.4551 85.207 50.2598 85.3828 50.0742V45.8408H80.9443V43.1016H89.0449ZM92.0918 46.251V45.9141C92.0918 44.7715 92.2578 43.7119 92.5898 42.7354C92.9219 41.749 93.4004 40.8945 94.0254 40.1719C94.6602 39.4395 95.4316 38.873 96.3398 38.4727C97.2578 38.0625 98.293 37.8574 99.4453 37.8574C100.607 37.8574 101.643 38.0625 102.551 38.4727C103.469 38.873 104.245 39.4395 104.88 40.1719C105.515 40.8945 105.998 41.749 106.33 42.7354C106.662 43.7119 106.828 44.7715 106.828 45.9141V46.251C106.828 47.3936 106.662 48.4531 106.33 49.4297C105.998 50.4062 105.515 51.2607 104.88 51.9932C104.245 52.7158 103.474 53.2822 102.565 53.6924C101.657 54.0928 100.627 54.293 99.4746 54.293C98.3125 54.293 97.2725 54.0928 96.3545 53.6924C95.4463 53.2822 94.6748 52.7158 94.04 51.9932C93.4053 51.2607 92.9219 50.4062 92.5898 49.4297C92.2578 48.4531 92.0918 47.3936 92.0918 46.251ZM95.6221 45.9141V46.251C95.6221 46.9639 95.6953 47.6377 95.8418 48.2725C95.9883 48.9072 96.2178 49.4639 96.5303 49.9424C96.8428 50.4209 97.2432 50.7969 97.7314 51.0703C98.2197 51.3438 98.8008 51.4805 99.4746 51.4805C100.129 51.4805 100.695 51.3438 101.174 51.0703C101.662 50.7969 102.062 50.4209 102.375 49.9424C102.688 49.4639 102.917 48.9072 103.063 48.2725C103.22 47.6377 103.298 46.9639 103.298 46.251V45.9141C103.298 45.2109 103.22 44.5469 103.063 43.9219C102.917 43.2871 102.683 42.7256 102.36 42.2373C102.048 41.749 101.647 41.3682 101.159 41.0947C100.681 40.8115 100.109 40.6699 99.4453 40.6699C98.7812 40.6699 98.2051 40.8115 97.7168 41.0947C97.2383 41.3682 96.8428 41.749 96.5303 42.2373C96.2178 42.7256 95.9883 43.2871 95.8418 43.9219C95.6953 44.5469 95.6221 45.2109 95.6221 45.9141ZM109.113 46.251V45.9141C109.113 44.7715 109.279 43.7119 109.611 42.7354C109.943 41.749 110.422 40.8945 111.047 40.1719C111.682 39.4395 112.453 38.873 113.361 38.4727C114.279 38.0625 115.314 37.8574 116.467 37.8574C117.629 37.8574 118.664 38.0625 119.572 38.4727C120.49 38.873 121.267 39.4395 121.901 40.1719C122.536 40.8945 123.02 41.749 123.352 42.7354C123.684 43.7119 123.85 44.7715 123.85 45.9141V46.251C123.85 47.3936 123.684 48.4531 123.352 49.4297C123.02 50.4062 122.536 51.2607 121.901 51.9932C121.267 52.7158 120.495 53.2822 119.587 53.6924C118.679 54.0928 117.648 54.293 116.496 54.293C115.334 54.293 114.294 54.0928 113.376 53.6924C112.468 53.2822 111.696 52.7158 111.062 51.9932C110.427 51.2607 109.943 50.4062 109.611 49.4297C109.279 48.4531 109.113 47.3936 109.113 46.251ZM112.644 45.9141V46.251C112.644 46.9639 112.717 47.6377 112.863 48.2725C113.01 48.9072 113.239 49.4639 113.552 49.9424C113.864 50.4209 114.265 50.7969 114.753 51.0703C115.241 51.3438 115.822 51.4805 116.496 51.4805C117.15 51.4805 117.717 51.3438 118.195 51.0703C118.684 50.7969 119.084 50.4209 119.396 49.9424C119.709 49.4639 119.938 48.9072 120.085 48.2725C120.241 47.6377 120.319 46.9639 120.319 46.251V45.9141C120.319 45.2109 120.241 44.5469 120.085 43.9219C119.938 43.2871 119.704 42.7256 119.382 42.2373C119.069 41.749 118.669 41.3682 118.181 41.0947C117.702 40.8115 117.131 40.6699 116.467 40.6699C115.803 40.6699 115.227 40.8115 114.738 41.0947C114.26 41.3682 113.864 41.749 113.552 42.2373C113.239 42.7256 113.01 43.2871 112.863 43.9219C112.717 44.5469 112.644 45.2109 112.644 45.9141ZM136.96 38.1504H140.168V53.5605C140.168 54.9863 139.865 56.1973 139.26 57.1934C138.654 58.1895 137.81 58.9463 136.726 59.4639C135.642 59.9912 134.387 60.2549 132.961 60.2549C132.355 60.2549 131.682 60.167 130.939 59.9912C130.207 59.8154 129.494 59.5322 128.801 59.1416C128.117 58.7607 127.546 58.2578 127.087 57.6328L128.742 55.5527C129.309 56.2266 129.934 56.7197 130.617 57.0322C131.301 57.3447 132.019 57.501 132.771 57.501C133.581 57.501 134.27 57.3496 134.836 57.0469C135.412 56.7539 135.856 56.3193 136.169 55.7432C136.481 55.167 136.638 54.4639 136.638 53.6338V41.7393L136.96 38.1504ZM126.193 46.251V45.9434C126.193 44.7422 126.34 43.6484 126.633 42.6621C126.926 41.666 127.346 40.8115 127.893 40.0986C128.439 39.376 129.104 38.8242 129.885 38.4434C130.666 38.0527 131.55 37.8574 132.536 37.8574C133.562 37.8574 134.436 38.043 135.158 38.4141C135.891 38.7852 136.501 39.3174 136.989 40.0107C137.478 40.6943 137.858 41.5146 138.132 42.4717C138.415 43.4189 138.625 44.4736 138.762 45.6357V46.6172C138.635 47.75 138.42 48.7852 138.117 49.7227C137.814 50.6602 137.414 51.4707 136.916 52.1543C136.418 52.8379 135.803 53.3652 135.07 53.7363C134.348 54.1074 133.493 54.293 132.507 54.293C131.54 54.293 130.666 54.0928 129.885 53.6924C129.113 53.292 128.449 52.7305 127.893 52.0078C127.346 51.2852 126.926 50.4355 126.633 49.459C126.34 48.4727 126.193 47.4033 126.193 46.251ZM129.724 45.9434V46.251C129.724 46.9736 129.792 47.6475 129.929 48.2725C130.075 48.8975 130.295 49.4492 130.588 49.9277C130.891 50.3965 131.271 50.7676 131.73 51.041C132.199 51.3047 132.751 51.4365 133.386 51.4365C134.216 51.4365 134.895 51.2607 135.422 50.9092C135.959 50.5576 136.369 50.084 136.652 49.4883C136.945 48.8828 137.15 48.209 137.268 47.4668V44.8154C137.209 44.2393 137.087 43.7021 136.901 43.2041C136.726 42.7061 136.486 42.2715 136.184 41.9004C135.881 41.5195 135.5 41.2266 135.041 41.0215C134.582 40.8066 134.04 40.6992 133.415 40.6992C132.78 40.6992 132.229 40.8359 131.76 41.1094C131.291 41.3828 130.905 41.7588 130.603 42.2373C130.31 42.7158 130.09 43.2725 129.943 43.9072C129.797 44.542 129.724 45.2207 129.724 45.9434ZM147.609 31.5V54H144.064V31.5H147.609ZM158.464 54.293C157.292 54.293 156.232 54.1025 155.285 53.7217C154.348 53.3311 153.547 52.7891 152.883 52.0957C152.229 51.4023 151.726 50.5869 151.374 49.6494C151.022 48.7119 150.847 47.7012 150.847 46.6172V46.0312C150.847 44.791 151.027 43.668 151.389 42.6621C151.75 41.6562 152.253 40.7969 152.897 40.084C153.542 39.3613 154.304 38.8096 155.183 38.4287C156.062 38.0479 157.014 37.8574 158.039 37.8574C159.172 37.8574 160.163 38.0479 161.013 38.4287C161.862 38.8096 162.565 39.3467 163.122 40.04C163.688 40.7236 164.108 41.5391 164.382 42.4863C164.665 43.4336 164.807 44.4785 164.807 45.6211V47.1299H152.561V44.5957H161.32V44.3174C161.301 43.6826 161.174 43.0869 160.939 42.5303C160.715 41.9736 160.368 41.5244 159.899 41.1826C159.431 40.8408 158.806 40.6699 158.024 40.6699C157.438 40.6699 156.916 40.7969 156.457 41.0508C156.008 41.2949 155.632 41.6514 155.329 42.1201C155.026 42.5889 154.792 43.1553 154.626 43.8193C154.47 44.4736 154.392 45.2109 154.392 46.0312V46.6172C154.392 47.3105 154.484 47.9551 154.67 48.5508C154.865 49.1367 155.148 49.6494 155.52 50.0889C155.891 50.5283 156.34 50.875 156.867 51.1289C157.395 51.373 157.995 51.4951 158.669 51.4951C159.519 51.4951 160.275 51.3242 160.939 50.9824C161.604 50.6406 162.18 50.1572 162.668 49.5322L164.528 51.334C164.187 51.832 163.742 52.3105 163.195 52.7695C162.648 53.2188 161.979 53.585 161.188 53.8682C160.407 54.1514 159.499 54.293 158.464 54.293ZM183.483 46.0459H177.932V43.1309H183.483C184.45 43.1309 185.231 42.9746 185.827 42.6621C186.423 42.3496 186.857 41.9199 187.131 41.373C187.414 40.8164 187.556 40.1816 187.556 39.4688C187.556 38.7949 187.414 38.165 187.131 37.5791C186.857 36.9834 186.423 36.5049 185.827 36.1436C185.231 35.7822 184.45 35.6016 183.483 35.6016H179.06V54H175.383V32.6719H183.483C185.134 32.6719 186.535 32.9648 187.688 33.5508C188.85 34.127 189.733 34.9277 190.339 35.9531C190.944 36.9688 191.247 38.1309 191.247 39.4395C191.247 40.8164 190.944 41.998 190.339 42.9844C189.733 43.9707 188.85 44.7275 187.688 45.2549C186.535 45.7822 185.134 46.0459 183.483 46.0459ZM197.971 31.5V54H194.426V31.5H197.971ZM210.773 50.8213V43.2627C210.773 42.6963 210.671 42.208 210.466 41.7979C210.261 41.3877 209.948 41.0703 209.528 40.8457C209.118 40.6211 208.601 40.5088 207.976 40.5088C207.399 40.5088 206.901 40.6064 206.481 40.8018C206.062 40.9971 205.734 41.2607 205.5 41.5928C205.266 41.9248 205.148 42.3008 205.148 42.7207H201.633C201.633 42.0957 201.784 41.4902 202.087 40.9043C202.39 40.3184 202.829 39.7959 203.405 39.3369C203.981 38.8779 204.67 38.5166 205.471 38.2529C206.271 37.9893 207.17 37.8574 208.166 37.8574C209.357 37.8574 210.412 38.0576 211.33 38.458C212.258 38.8584 212.985 39.4639 213.513 40.2744C214.05 41.0752 214.318 42.0811 214.318 43.292V50.3379C214.318 51.0605 214.367 51.71 214.465 52.2861C214.572 52.8525 214.724 53.3457 214.919 53.7656V54H211.301C211.135 53.6191 211.003 53.1357 210.905 52.5498C210.817 51.9541 210.773 51.3779 210.773 50.8213ZM211.286 44.3613L211.315 46.5439H208.781C208.127 46.5439 207.551 46.6074 207.053 46.7344C206.555 46.8516 206.14 47.0273 205.808 47.2617C205.476 47.4961 205.227 47.7793 205.061 48.1113C204.895 48.4434 204.812 48.8193 204.812 49.2393C204.812 49.6592 204.909 50.0449 205.104 50.3965C205.3 50.7383 205.583 51.0068 205.954 51.2021C206.335 51.3975 206.794 51.4951 207.331 51.4951C208.054 51.4951 208.684 51.3486 209.221 51.0557C209.768 50.7529 210.197 50.3867 210.51 49.957C210.822 49.5176 210.988 49.1025 211.008 48.7119L212.15 50.2793C212.033 50.6797 211.833 51.1094 211.55 51.5684C211.267 52.0273 210.896 52.4668 210.437 52.8867C209.987 53.2969 209.445 53.6338 208.811 53.8975C208.186 54.1611 207.463 54.293 206.643 54.293C205.607 54.293 204.685 54.0879 203.874 53.6777C203.063 53.2578 202.429 52.6963 201.97 51.9932C201.511 51.2803 201.281 50.4746 201.281 49.5762C201.281 48.7363 201.438 47.9941 201.75 47.3496C202.072 46.6953 202.541 46.1484 203.156 45.709C203.781 45.2695 204.543 44.9375 205.441 44.7129C206.34 44.4785 207.365 44.3613 208.518 44.3613H211.286ZM222.375 52.2715L226.682 38.1504H230.461L224.104 56.417C223.957 56.8076 223.767 57.2324 223.532 57.6914C223.298 58.1504 222.99 58.585 222.609 58.9951C222.238 59.415 221.774 59.752 221.218 60.0059C220.661 60.2695 219.987 60.4014 219.196 60.4014C218.884 60.4014 218.581 60.3721 218.288 60.3135C218.005 60.2646 217.736 60.2109 217.482 60.1523L217.468 57.457C217.565 57.4668 217.683 57.4766 217.819 57.4863C217.966 57.4961 218.083 57.501 218.171 57.501C218.757 57.501 219.245 57.4277 219.636 57.2812C220.026 57.1445 220.344 56.9199 220.588 56.6074C220.842 56.2949 221.057 55.875 221.232 55.3477L222.375 52.2715ZM219.943 38.1504L223.708 50.0156L224.338 53.7363L221.892 54.3662L216.135 38.1504H219.943Z" fill="white"/>
<path d="M77.7949 18.752V21.875C77.6895 22.0312 77.5215 22.207 77.291 22.4023C77.0605 22.5938 76.7422 22.7617 76.3359 22.9062C75.9336 23.0469 75.4141 23.1172 74.7773 23.1172C74.2578 23.1172 73.7793 23.0273 73.3418 22.8477C72.9082 22.6641 72.5312 22.3984 72.2109 22.0508C71.8945 21.6992 71.6484 21.2734 71.4727 20.7734C71.3008 20.2695 71.2148 19.6992 71.2148 19.0625V18.4004C71.2148 17.7637 71.2891 17.1953 71.4375 16.6953C71.5898 16.1953 71.8125 15.7715 72.1055 15.4238C72.3984 15.0723 72.7578 14.8066 73.1836 14.627C73.6094 14.4434 74.0977 14.3516 74.6484 14.3516C75.3008 14.3516 75.8457 14.4648 76.2832 14.6914C76.7246 14.9141 77.0684 15.2227 77.3145 15.6172C77.5645 16.0117 77.7246 16.4609 77.7949 16.9648H76.6641C76.6133 16.6562 76.5117 16.375 76.3594 16.1211C76.2109 15.8672 75.998 15.6641 75.7207 15.5117C75.4434 15.3555 75.0859 15.2773 74.6484 15.2773C74.2539 15.2773 73.9121 15.3496 73.623 15.4941C73.334 15.6387 73.0957 15.8457 72.9082 16.1152C72.7207 16.3848 72.5801 16.7109 72.4863 17.0938C72.3965 17.4766 72.3516 17.9082 72.3516 18.3887V19.0625C72.3516 19.5547 72.4082 19.9941 72.5215 20.3809C72.6387 20.7676 72.8047 21.0977 73.0195 21.3711C73.2344 21.6406 73.4902 21.8457 73.7871 21.9863C74.0879 22.127 74.4199 22.1973 74.7832 22.1973C75.1855 22.1973 75.5117 22.1641 75.7617 22.0977C76.0117 22.0273 76.207 21.9453 76.3477 21.8516C76.4883 21.7539 76.5957 21.6621 76.6699 21.5762V19.666H74.6953V18.752H77.7949ZM84.7298 22.0801V23H80.2123V22.0801H84.7298ZM80.4408 14.4688V23H79.3099V14.4688H80.4408ZM84.1322 18.1367V19.0566H80.2123V18.1367H84.1322ZM84.6712 14.4688V15.3945H80.2123V14.4688H84.6712ZM89.0398 14.4688V23H87.9265V14.4688H89.0398ZM91.782 14.4688V15.3945H85.1902V14.4688H91.782ZM96.2827 14.4688V23H95.1518V14.4688H96.2827ZM100.956 14.4688V23H99.8426V14.4688H100.956ZM103.698 14.4688V15.3945H97.1063V14.4688H103.698ZM113.554 18.4648V19.0039C113.554 19.6445 113.474 20.2188 113.314 20.7266C113.154 21.2344 112.923 21.666 112.623 22.0215C112.322 22.377 111.96 22.6484 111.539 22.8359C111.121 23.0234 110.652 23.1172 110.132 23.1172C109.628 23.1172 109.166 23.0234 108.744 22.8359C108.326 22.6484 107.962 22.377 107.654 22.0215C107.349 21.666 107.113 21.2344 106.945 20.7266C106.777 20.2188 106.693 19.6445 106.693 19.0039V18.4648C106.693 17.8242 106.775 17.252 106.939 16.748C107.107 16.2402 107.343 15.8086 107.648 15.4531C107.953 15.0938 108.314 14.8203 108.732 14.6328C109.154 14.4453 109.617 14.3516 110.121 14.3516C110.64 14.3516 111.109 14.4453 111.527 14.6328C111.949 14.8203 112.31 15.0938 112.611 15.4531C112.916 15.8086 113.148 16.2402 113.308 16.748C113.472 17.252 113.554 17.8242 113.554 18.4648ZM112.435 19.0039V18.4531C112.435 17.9453 112.382 17.4961 112.277 17.1055C112.175 16.7148 112.025 16.3867 111.826 16.1211C111.626 15.8555 111.382 15.6543 111.093 15.5176C110.808 15.3809 110.484 15.3125 110.121 15.3125C109.769 15.3125 109.451 15.3809 109.166 15.5176C108.884 15.6543 108.642 15.8555 108.439 16.1211C108.24 16.3867 108.085 16.7148 107.976 17.1055C107.867 17.4961 107.812 17.9453 107.812 18.4531V19.0039C107.812 19.5156 107.867 19.9688 107.976 20.3633C108.085 20.7539 108.242 21.084 108.445 21.3535C108.652 21.6191 108.896 21.8203 109.177 21.957C109.462 22.0938 109.781 22.1621 110.132 22.1621C110.5 22.1621 110.826 22.0938 111.111 21.957C111.396 21.8203 111.636 21.6191 111.832 21.3535C112.031 21.084 112.181 20.7539 112.283 20.3633C112.384 19.9688 112.435 19.5156 112.435 19.0039ZM121.45 14.4688V23H120.313L116.018 16.4199V23H114.888V14.4688H116.018L120.331 21.0664V14.4688H121.45Z" fill="white"/>
</svg>
