<svg width="201" height="72" viewBox="0 0 201 72" fill="none" xmlns="http://www.w3.org/2000/svg">
<g filter="url(#filter0_di_559_962)">
<path d="M41.757 19.0683V46.3642C41.757 46.668 41.7418 46.8958 41.7114 47.0477H44.0354V51.6958H42.3038L40.8 49.8274H40.6633C39.7215 51.073 38.4456 51.6958 36.8355 51.6958H11.3168C9.31174 51.6958 7.54973 51.0122 6.03076 49.6452C4.23838 48.0047 3.34218 45.9541 3.34218 43.4933V36.2934L6.16747 34.0149H8.90162V43.4933C8.90162 44.4047 9.19022 45.1946 9.76743 45.8629C10.4965 46.6528 11.3775 47.0477 12.4104 47.0477H35.0583C35.4532 47.0477 35.7418 46.9262 35.9241 46.6832C36.1064 46.5009 36.1975 46.2427 36.1975 45.9085V19.0683H41.757ZM19.2002 34.0149C18.8357 33.377 18.5471 32.6631 18.3344 31.8732C18.2129 31.4175 18.1522 30.9162 18.1522 30.3694C18.2129 28.6378 18.7901 27.2859 19.8838 26.3138C20.9774 25.3416 22.466 24.8555 24.3496 24.8555C25.2306 24.8555 26.0356 24.9467 26.7647 25.129V27.7264C26.1268 27.5441 25.504 27.453 24.8964 27.453C22.8306 27.453 21.7369 28.4859 21.6154 30.5517C21.6154 31.22 21.7521 31.858 22.0255 32.4656C22.4812 33.4985 23.3622 34.0149 24.6685 34.0149H29.2255V35.1997L27.9039 36.8402H15.8281V34.0149H19.2002ZM55.6093 19.0683V46.3642V47.0477H57.9333V51.6958H56.384L54.6523 49.8274H54.5612C53.5283 51.073 52.2372 51.6958 50.6878 51.6958H41.893V47.0477H48.9106C49.2752 47.0477 49.579 46.9262 49.822 46.6832C50.0043 46.3794 50.0954 46.1211 50.0954 45.9085V19.0683H55.6093ZM69.4954 30.734V46.3642V47.0477H71.8194V51.6958H70.2245L68.5384 49.8274H68.4473C67.4144 51.073 66.1233 51.6958 64.5739 51.6958H55.7791V47.0477H62.66C63.0853 47.0477 63.3891 46.9262 63.5714 46.6832C63.8448 46.4401 63.9815 46.1363 63.9815 45.7718V30.734H69.4954ZM59.6069 55.0223C60.4271 55.0223 61.1259 55.3109 61.7031 55.8881C62.2803 56.4653 62.5689 57.1641 62.5689 57.9843C62.5689 58.8046 62.2803 59.5033 61.7031 60.0805C61.1259 60.6577 60.4271 60.9463 59.6069 60.9463C58.7867 60.9463 58.0879 60.6577 57.5107 60.0805C56.9335 59.5033 56.6449 58.8046 56.6449 57.9843C56.6449 57.1641 56.9335 56.4653 57.5107 55.8881C58.0879 55.3109 58.7867 55.0223 59.6069 55.0223ZM66.5334 55.0223C67.3537 55.0223 68.0524 55.3109 68.6296 55.8881C69.2068 56.4653 69.4954 57.1641 69.4954 57.9843C69.4954 58.8046 69.2068 59.5033 68.6296 60.0805C68.0524 60.6577 67.3537 60.9463 66.5334 60.9463C65.7435 60.9463 65.06 60.6577 64.4828 60.0805C63.9056 59.5033 63.617 58.8046 63.617 57.9843C63.617 57.1641 63.9056 56.4653 64.4828 55.8881C65.06 55.3109 65.7435 55.0223 66.5334 55.0223ZM80.7385 31.2352C84.2018 29.7163 87.5891 28.9568 90.9004 28.9568C95.1839 28.9568 98.4497 30.2935 100.698 32.9669C102.612 35.2757 103.569 38.3288 103.569 42.1263V46.6832C103.569 48.0502 103.052 49.2502 102.019 50.2831C101.078 51.2249 99.9535 51.6958 98.6472 51.6958H87.5739C85.9942 51.6958 84.8701 51.5287 84.2018 51.1945H84.0195C83.3511 51.5287 82.2271 51.6958 80.6474 51.6958H69.6196V47.0477H77.8221C77.3056 46.3186 76.9259 45.5439 76.6829 44.7237C76.3791 43.8427 76.2272 42.8554 76.2272 41.7617C76.2272 39.9389 76.6829 38.3288 77.5942 36.9314C78.3537 35.8073 79.4018 34.9567 80.7385 34.3795V31.2352ZM98.0092 42.8554C98.0092 39.4529 97.2649 36.9921 95.7763 35.4732C94.3789 34.0757 92.2523 33.377 89.3967 33.377C88.0903 33.377 86.7385 33.5289 85.341 33.8327C87.2853 34.1061 88.865 34.9263 90.0802 36.2934C91.3561 37.7212 91.9941 39.544 91.9941 41.7617C91.9941 42.7642 91.8574 43.706 91.584 44.587C91.3106 45.5287 90.9308 46.349 90.4447 47.0477H96.8244C97.1586 47.0477 97.432 46.9566 97.6447 46.7743C97.8877 46.5313 98.0092 46.2427 98.0092 45.9085V42.8554ZM84.0651 46.5009C85.1283 46.3794 85.9334 45.9085 86.4802 45.0882C87.0271 44.2984 87.3309 43.2503 87.3916 41.944C87.3916 40.4858 87.0574 39.3769 86.3891 38.6174C85.7511 37.8883 84.9764 37.5238 84.0651 37.5238C82.8499 37.5238 81.9385 38.0706 81.3309 39.1643C80.9056 39.9541 80.6929 40.8807 80.6929 41.944C80.7537 43.1592 81.0271 44.1617 81.5132 44.9515C82.1208 45.8629 82.9714 46.3794 84.0651 46.5009ZM107.392 13.1898C106.875 12.4 106.617 11.519 106.617 10.5468C106.617 9.30128 106.997 8.28357 107.756 7.49371C108.516 6.67346 109.488 6.26334 110.673 6.26334C111.523 6.26334 112.374 6.40005 113.225 6.67346V9.08862C112.465 8.90635 111.888 8.81521 111.493 8.81521C110.187 8.81521 109.534 9.54432 109.534 11.0025C109.534 11.6101 109.685 12.081 109.989 12.4152C110.354 12.9316 110.901 13.1898 111.63 13.1898H114.683V14.3291L113.635 15.605H105.569V13.1898H107.392ZM112.951 19.0683V45.9085C112.951 46.2123 113.042 46.4553 113.225 46.6376C113.407 46.911 113.696 47.0477 114.091 47.0477H115.275V51.6958H112.313C111.068 51.6958 109.974 51.2553 109.032 50.3743C107.939 49.3717 107.392 48.1414 107.392 46.6832V19.0683H112.951ZM117.521 20.7088C118.341 20.7088 119.04 20.9974 119.617 21.5746C120.194 22.1518 120.483 22.8505 120.483 23.6708C120.483 24.4606 120.194 25.1442 119.617 25.7214C119.04 26.2986 118.341 26.5872 117.521 26.5872C116.701 26.5872 116.002 26.2986 115.425 25.7214C114.848 25.1442 114.559 24.4606 114.559 23.6708C114.559 22.8505 114.848 22.1518 115.425 21.5746C116.002 20.9974 116.701 20.7088 117.521 20.7088ZM124.448 20.7088C125.268 20.7088 125.966 20.9974 126.544 21.5746C127.121 22.1518 127.409 22.8505 127.409 23.6708C127.409 24.4606 127.121 25.1442 126.544 25.7214C125.966 26.2986 125.268 26.5872 124.448 26.5872C123.658 26.5872 122.974 26.2986 122.397 25.7214C121.82 25.1442 121.531 24.4606 121.531 23.6708C121.531 22.8505 121.82 22.1518 122.397 21.5746C122.974 20.9974 123.658 20.7088 124.448 20.7088ZM126.817 30.734V46.6832C126.817 47.868 126.422 48.9616 125.632 49.9641C124.63 51.1186 123.384 51.6958 121.896 51.6958H113.101V47.0477H120.118C120.453 47.0477 120.741 46.9262 120.984 46.6832C121.197 46.4705 121.303 46.2123 121.303 45.9085V30.734H126.817Z" fill="#581598"/>
</g>
<g filter="url(#filter1_di_559_962)">
<path d="M152.51 10.9133C155.632 7.99506 159.991 6.77407 164.205 6.76624C173.261 6.8312 181.446 12.6311 186.296 20.0713C189.724 25.4345 191.289 32.041 190.408 38.3536C189.359 46.3252 184.739 53.7704 178.022 58.1277C172.405 61.7209 165.562 62.9537 159.019 62.2648C158.524 62.194 158.035 62.0834 157.558 61.934C153.401 60.7027 149.516 58.3444 146.853 54.8629C145.272 52.7389 144.14 50.3145 143.529 47.7381C142.917 45.1617 142.837 42.4875 143.295 39.8793C143.817 36.8924 145.094 34.0886 147.006 31.7344L147.343 31.4339C151.254 27.6737 157.738 26.7887 162.459 29.6634C167.591 32.6007 169.536 39.353 166.878 44.6026C164.188 50.0864 156.799 51.8756 151.998 48.1934L152.169 47.6022C155.407 47.2183 159.111 45.7966 160.07 42.5506C160.482 40.9571 160.026 38.8916 158.816 37.8466C156.953 36.265 154.163 36.1799 151.959 37.2786L152.295 36.9771C151.423 37.6221 150.644 38.3852 149.981 39.2445C149.194 40.253 148.597 41.3958 148.219 42.6175C148.17 42.8275 148.053 43.2506 148.002 43.4596C147.939 43.721 147.908 44.0612 147.855 44.329C147.032 51.2723 153.151 56.4607 159.578 57.3794C165.405 57.3767 172.035 55.5144 176.312 50.0512C184.169 39.8928 181.423 26.5274 170.675 19.5883C168.096 18.0153 165.416 16.6148 162.653 15.3961C160.206 14.3099 157.454 13.2302 154.806 12.3187C154.111 12.0606 153.374 11.8252 152.658 11.5333L152.538 10.9347L152.51 10.9133Z" fill="#581598"/>
</g>
<defs>
<filter id="filter0_di_559_962" x="1.18825" y="4.10979" width="128.374" height="61.1436" filterUnits="userSpaceOnUse" color-interpolation-filters="sRGB">
<feFlood flood-opacity="0" result="BackgroundImageFix"/>
<feColorMatrix in="SourceAlpha" type="matrix" values="0 0 0 0 0 0 0 0 0 0 0 0 0 0 0 0 0 0 127 0" result="hardAlpha"/>
<feOffset dy="2.15355"/>
<feGaussianBlur stdDeviation="1.07678"/>
<feComposite in2="hardAlpha" operator="out"/>
<feColorMatrix type="matrix" values="0 0 0 0 0 0 0 0 0 0 0 0 0 0 0 0 0 0 0.25 0"/>
<feBlend mode="normal" in2="BackgroundImageFix" result="effect1_dropShadow_559_962"/>
<feBlend mode="normal" in="SourceGraphic" in2="effect1_dropShadow_559_962" result="shape"/>
<feColorMatrix in="SourceAlpha" type="matrix" values="0 0 0 0 0 0 0 0 0 0 0 0 0 0 0 0 0 0 127 0" result="hardAlpha"/>
<feOffset dx="-1.07678" dy="-2.15355"/>
<feGaussianBlur stdDeviation="1.07678"/>
<feComposite in2="hardAlpha" operator="arithmetic" k2="-1" k3="1"/>
<feColorMatrix type="matrix" values="0 0 0 0 0 0 0 0 0 0 0 0 0 0 0 0 0 0 0.25 0"/>
<feBlend mode="normal" in2="shape" result="effect2_innerShadow_559_962"/>
</filter>
<filter id="filter1_di_559_962" x="139.479" y="5.00459" width="54.694" height="64.4895" filterUnits="userSpaceOnUse" color-interpolation-filters="sRGB">
<feFlood flood-opacity="0" result="BackgroundImageFix"/>
<feColorMatrix in="SourceAlpha" type="matrix" values="0 0 0 0 0 0 0 0 0 0 0 0 0 0 0 0 0 0 127 0" result="hardAlpha"/>
<feOffset dy="3.52329"/>
<feGaussianBlur stdDeviation="1.76164"/>
<feComposite in2="hardAlpha" operator="out"/>
<feColorMatrix type="matrix" values="0 0 0 0 0 0 0 0 0 0 0 0 0 0 0 0 0 0 0.25 0"/>
<feBlend mode="normal" in2="BackgroundImageFix" result="effect1_dropShadow_559_962"/>
<feBlend mode="normal" in="SourceGraphic" in2="effect1_dropShadow_559_962" result="shape"/>
<feColorMatrix in="SourceAlpha" type="matrix" values="0 0 0 0 0 0 0 0 0 0 0 0 0 0 0 0 0 0 127 0" result="hardAlpha"/>
<feOffset dx="-2.64246" dy="-1.76164"/>
<feGaussianBlur stdDeviation="1.76164"/>
<feComposite in2="hardAlpha" operator="arithmetic" k2="-1" k3="1"/>
<feColorMatrix type="matrix" values="0 0 0 0 0 0 0 0 0 0 0 0 0 0 0 0 0 0 0.15 0"/>
<feBlend mode="normal" in2="shape" result="effect2_innerShadow_559_962"/>
</filter>
</defs>
</svg>
