<svg width="80" height="80" viewBox="0 0 80 80" fill="none" xmlns="http://www.w3.org/2000/svg">
<path opacity="0.2" d="M80 40C80 62.0914 62.0914 80 40 80C17.9086 80 0 62.0914 0 40C0 17.9086 17.9086 0 40 0C62.0914 0 80 17.9086 80 40Z" fill="#CFBCDC"/>
<path fill-rule="evenodd" clip-rule="evenodd" d="M23.9735 32.4093L41.9694 24.6749C41.6824 25.1482 41.4178 25.6088 41.1757 26.0568L23.9735 32.4093ZM52.6083 25.1241C52.4445 25.8182 52.4306 26.0693 52.5202 26.2024C53.6898 27.9361 55.4941 29.0713 57.7167 29.7634C58.488 29.8225 58.9255 29.4974 59.0292 28.7882C59.7569 26.8267 59.7794 25.1504 59.8141 23.2842C59.8272 22.593 60.0827 22.175 60.3546 21.6298C60.4939 21.3501 60.5751 21.0382 60.7053 20.637C60.8254 20.2673 61.076 19.8626 61.1975 19.468C61.3226 19.1682 61.0544 18.9374 60.8429 19.316C60.8429 19.316 60.7793 19.5114 60.4869 19.9263C60.3825 20.0744 60.2815 20.1499 60.2581 20.1337C60.2093 20.1011 60.2544 20.0536 60.3009 19.8762C60.369 19.6119 60.5712 19.205 60.7361 18.5628C60.8042 18.3147 60.5196 18.1714 60.3937 18.4728C60.3937 18.4728 60.2019 18.7963 59.9113 19.4371C59.814 19.6519 59.7342 19.6562 59.7106 19.6441C59.6871 19.632 59.631 19.566 59.6873 19.3393L60.0349 17.9484C60.1003 17.6346 59.7791 17.5863 59.6737 17.8425C59.6298 17.9793 59.5614 18.1054 59.2942 18.9113C59.2017 19.1906 59.1266 19.4098 59.0693 19.4018C58.9853 19.39 59.0233 19.0928 59.0488 18.8189C59.0766 18.5215 59.1054 18.263 59.1277 17.9881C59.1487 17.7753 58.9159 17.6838 58.8139 17.9434C58.6264 18.8518 58.4166 19.7271 58.2142 20.6281C58.1193 20.1562 58.0871 19.6 57.8083 19.6223C57.5614 19.6424 57.5656 20.0044 57.5848 20.4023C57.5993 20.7021 57.5837 20.8559 57.6155 21.0307C57.6762 21.3654 57.9566 21.9992 58.1281 22.2834C58.2383 24.8644 56.1613 26.0212 56.8827 28.1334C56.3323 26.921 56.6665 26.4894 56.5309 26.0337C55.9326 25.2002 55.2204 24.3729 54.4898 24.1391C54.1842 23.1488 53.296 22.1451 52.2377 22.2692C52.0727 22.3438 51.6722 22.6348 51.3563 22.9392C52.0773 21.9687 52.8078 21.7225 53.7116 21.8431C54.2989 21.9769 54.775 21.9778 55.0776 21.7999C55.5078 21.5469 55.6335 20.8507 55.7904 19.9577C55.8189 19.7948 56.5514 20.1613 56.0825 18.8294C55.8159 18.0733 56.1014 18.2087 56.3557 17.5266C56.947 15.9428 56.316 14.5581 54.7004 13.9463C51.9101 12.891 50.102 14.6684 49.6856 16.7101C49.5735 17.2576 49.571 17.7384 49.682 18.2336C49.9438 19.4037 50.0747 19.3263 49.8592 19.8532C48.9931 19.1441 47.4299 18.7834 46.1644 19.3C46.5694 19.0417 46.9579 18.8693 47.3297 18.7829C45.867 16.9563 44.2297 17.021 42.5588 16.6381C41.7031 16.4414 41.6456 16.3135 41.3669 16.3533C40.9462 16.4133 40.8228 16.5803 40.1667 16.9483C39.4345 17.3592 38.9217 17.5321 38.3805 17.8593C37.5071 18.3869 36.5828 19.2227 35.2094 20.8935C34.3414 21.0492 33.6991 21.2376 33.3229 21.5063C32.7968 21.5259 32.2206 21.5539 31.6476 21.5518C31.3172 21.5754 31.2698 21.9464 31.6172 22.0171C32.3369 22.0598 32.6848 22.1445 33.1889 22.2138C33.3022 22.2295 33.3275 22.3525 33.1858 22.3745C32.4448 22.4898 31.8056 22.5511 31.3281 22.6434C31.015 22.7182 31.0468 23.1343 31.3922 23.1256C32.1976 23.0025 32.7592 22.9888 33.1403 22.975C33.3514 22.9675 33.3648 23.0145 33.224 23.1622C32.7293 23.6819 32.3206 24.1441 31.9215 24.5464C31.578 24.8922 32.0122 25.2749 32.3268 24.9794C32.9144 24.4253 33.3378 24.0089 33.5969 23.7303C33.7286 23.5891 33.7953 23.7038 33.7265 23.8068C33.1777 24.6317 32.8883 25.1131 32.7381 25.382C32.5475 25.7249 32.9247 25.9432 33.1369 25.6823C33.5703 25.1052 33.8512 24.6943 34.2385 24.1537C34.4458 23.8648 35.0194 23.7498 35.1998 23.6894C34.9839 23.8888 34.9564 24.1952 34.8997 24.6778C34.8576 25.0345 34.9104 25.3165 35.1595 25.287C35.3266 25.2671 35.4483 25.0766 35.5064 24.658C35.5705 24.1989 35.9155 23.9655 35.9491 23.6821C36.0098 23.1733 36.0091 22.6969 35.9963 22.2347L35.994 22.2288C37.6767 20.9507 41.039 19.9834 42.028 18.186C41.9423 18.5391 41.6269 18.9858 41.4176 19.2279C42.4136 20.3562 45.6944 20.8334 46.4142 22.6645C45.8628 21.8881 45.3191 21.657 44.8727 21.5431C43.0688 23.9714 41.7497 26.1416 40.9153 28.0538C40.1576 29.2918 39.2661 30.5969 38.2406 31.9693C36.052 33.0377 35.1697 35.0915 35.5937 38.1307C35.6976 38.471 35.838 38.8666 36.0149 39.3173C35.724 38.8794 35.5206 38.5438 35.4046 38.3104C33.5122 40.8782 32.5798 43.0678 32.6076 44.8792C32.084 45.5722 31.4917 46.1328 31.1779 46.5614C29.3925 47.7179 28.1962 48.9864 27.9517 50.6649C27.8583 51.3066 27.9254 51.6778 28.1567 52.2845C28.0305 52.0809 27.9196 51.8682 27.8249 51.6482C26.9789 53.0408 26.4756 54.7969 25.8893 56.3291C25.8082 56.903 25.7907 57.541 25.8367 58.2429C25.6611 57.4093 25.5508 56.8571 25.5057 56.5865C24.7663 56.8316 24.1184 57.2111 23.639 57.6429C22.7018 58.4882 22.8743 58.802 23.4553 59.8158C24.342 61.3621 24.9037 62.4519 25.3247 63.2536C26.5551 65.6003 28.9569 65.1161 28.1535 63.2221C27.0751 61.7181 26.8306 60.2065 27.4202 58.6871C27.9602 56.8982 29.8428 53.7098 33.3736 49.1049C34.2515 48.7498 34.9927 47.9533 35.4899 46.8797C34.9393 47.1111 34.4928 47.2813 33.9827 47.3678C36.1225 46.6047 37.0046 45.4857 37.7291 44.2231C39.0561 42.5327 40.0807 41.024 40.8028 39.697C39.9191 39.3207 39.2429 38.8958 38.7741 38.4222C40.4968 39.3388 42.2554 40.0032 44.0498 40.4154C47.8947 41.9167 47.6603 40.1327 50.162 40.9806C48.7994 40.8188 48.0015 41.053 47.2826 41.6433C46.1816 42.49 45.0196 43.6542 43.7964 45.1357C42.4983 46.1412 41.4053 46.8552 40.5176 47.2775C39.5241 47.7369 37.7726 48.783 38.7607 49.9873C38.8417 50.0861 40.0853 50.9788 41.1997 51.8444C42.2159 52.6338 43.2073 53.3145 43.7624 53.739C44.7052 54.46 45.7481 53.5493 45.1724 52.7583C44.7881 52.2302 43.8832 51.5909 43.5413 50.7468C43.1038 49.6659 42.9244 48.6379 43.323 47.5153C43.298 47.8935 43.2651 48.2992 43.311 48.4831C44.2116 47.6724 45.3234 47.0229 46.6464 46.5344C49.0157 45.5114 50.9845 44.2322 52.5527 42.6969C54.0459 41.2347 53.7826 39.9474 52.0617 38.6081C50.2187 36.8896 44.6942 33.7974 41.9778 34.0965C43.5285 33.8239 44.3827 33.6869 44.8111 33.3373C47.713 30.9699 51.4669 28.3872 52.6101 25.1217L52.6083 25.1241ZM21.9448 24.1889L38.3442 17.1403C38.2468 17.1922 38.1485 17.2467 38.0479 17.3083C37.5748 17.5943 37.0907 17.9616 36.54 18.4816C36.3753 18.6368 36.2066 18.8044 36.0308 18.9873L21.9448 24.1889ZM19.0046 28.8351L30.9798 23.6884C31.1149 23.7484 31.2619 23.7769 31.4096 23.7718C31.4448 23.7707 31.4798 23.7668 31.5143 23.7601C31.6232 23.7435 31.7271 23.7292 31.8265 23.7164C31.6937 23.8584 31.5711 23.9883 31.4633 24.0959C31.4032 24.1563 31.3495 24.2228 31.3032 24.2943L19.0046 28.8351ZM20.8761 56.3042L26.0788 53.9089C25.9909 54.1453 25.9051 54.3817 25.8215 54.6183L20.8761 56.3042ZM19.3793 54.6223L27.2654 51.0736C27.2631 51.1595 27.2637 51.2419 27.2678 51.3239C27.1373 51.5391 27.0154 51.7602 26.9002 51.986L19.3794 54.6217L19.3793 54.6223ZM13.2057 54.8996L27.9237 48.6122L27.9724 48.7344C27.8148 48.9962 27.6811 49.2718 27.573 49.5576L13.2057 54.8996ZM16.2965 50.2241L32.091 43.5279C32.0373 43.7982 31.9997 44.0715 31.9786 44.3462L16.2965 50.2241ZM7.5737 49.4833L34.7975 38.0474C34.4183 38.5673 34.0772 39.0732 33.7742 39.5651L7.5737 49.4833ZM22.2138 41.2589L34.8889 35.8439C34.8638 36.0765 34.8491 36.3163 34.8445 36.5632L22.2138 41.2589ZM26.1117 36.7989L36.5502 32.3396C36.2738 32.5949 36.0273 32.8806 35.8153 33.1914L26.1117 36.7989ZM19.0851 37.1042L40.1131 28.121C39.8033 28.6151 39.4807 29.1079 39.1453 29.5994L39.102 29.6628L19.0861 37.1038L19.0851 37.1042Z" fill="url(#paint0_linear_187_591)"/>
<defs>
<linearGradient id="paint0_linear_187_591" x1="63.75" y1="29.1369" x2="19.3487" y2="46.7279" gradientUnits="userSpaceOnUse">
<stop stop-color="#003399"/>
<stop offset="0.0001" stop-color="#581598"/>
<stop offset="1" stop-color="#9867B8"/>
</linearGradient>
</defs>
</svg>
