<svg width="80" height="80" viewBox="0 0 80 80" fill="none" xmlns="http://www.w3.org/2000/svg">
<path opacity="0.2" d="M80 40C80 62.0914 62.0914 80 40 80C17.9086 80 0 62.0914 0 40C0 17.9086 17.9086 0 40 0C62.0914 0 80 17.9086 80 40Z" fill="#CFBCDC"/>
<path fill-rule="evenodd" clip-rule="evenodd" d="M36.9822 13C37.3411 13 37.7 13 38.121 13.0365C38.2419 13.0869 38.3587 13.1258 38.4694 13.1626L38.4695 13.1626C38.6578 13.2252 38.8284 13.282 38.9712 13.3796C40.345 14.3186 41.5506 13.7388 42.7468 13C43.1057 13 43.4646 13 43.8858 13.0363C44.7158 13.2892 45.3529 13.6938 45.856 14.3245C45.9585 14.4531 46.0984 14.5518 46.246 14.6562C46.3265 14.713 46.4093 14.7715 46.4897 14.8374C46.5742 14.8839 46.6376 14.9038 46.6996 14.9205C46.6983 14.9172 46.6918 14.9196 46.7161 14.9468C46.8339 14.994 46.9273 15.014 47.0188 15.0302C47.0169 15.0262 47.0089 15.0299 47.0438 15.0582C47.9488 15.1051 48.819 15.1237 49.6872 15.1381C49.6852 15.134 49.677 15.1379 49.7023 15.1639C49.8209 15.2123 49.9143 15.2346 50.005 15.2508C50.0024 15.2447 49.9903 15.2503 50.0097 15.2788C50.0586 15.3085 50.101 15.3285 50.1453 15.3494C50.1772 15.3644 50.2101 15.38 50.2471 15.3999L50.4071 15.5455C50.702 15.814 50.9836 16.0702 51.2714 16.3468C51.2974 16.3894 51.3205 16.4222 51.342 16.4528L51.3421 16.4529C51.3573 16.4745 51.3717 16.495 51.3858 16.5169C51.3851 16.5203 51.387 16.5234 51.39 16.5281C51.3948 16.5357 51.4023 16.5474 51.4055 16.5708C51.4611 16.7243 51.5151 16.8585 51.5671 16.9877L51.5671 16.9878C51.589 17.0422 51.6105 17.0957 51.6316 17.1494C51.961 17.9859 52.5713 18.485 53.433 18.7306C53.8904 18.861 54.3319 19.0471 54.7876 19.2391C54.8666 19.2724 54.9461 19.3059 55.0261 19.3393C55.1072 19.4256 55.1859 19.5074 55.2635 19.5881C55.3901 19.7197 55.5137 19.8483 55.6401 19.9881C55.6768 20.0469 55.7088 20.0869 55.7395 20.1253L55.7621 20.1537C55.7618 20.1549 55.7624 20.156 55.7634 20.1578C55.7656 20.1618 55.7696 20.1693 55.7705 20.1894C55.795 20.2428 55.8189 20.2813 55.8417 20.3182L55.8417 20.3183L55.8527 20.3361C55.8581 20.3449 55.8635 20.3537 55.8687 20.3628C55.8679 20.3655 55.8694 20.368 55.8716 20.3717C55.8753 20.3777 55.8809 20.3868 55.881 20.4055C55.9122 20.482 55.9431 20.5297 55.9746 20.5781L55.9766 20.5812L55.9767 20.5814C55.9773 20.583 55.9788 20.5869 55.9777 20.62C56.0068 20.7189 56.0368 20.7928 56.0659 20.8646L56.0814 20.9029C56.0807 20.9043 56.0808 20.9063 56.0811 20.9127C56.0814 20.92 56.0821 20.9331 56.082 20.9575C56.0941 21.1323 56.1071 21.2974 56.1197 21.4573C56.1345 21.6464 56.1488 21.8284 56.1604 22.0104C56.215 22.8699 56.6163 23.5165 57.336 23.9823C57.6617 24.1931 57.9697 24.4311 58.3015 24.6909C58.8687 25.365 59.0378 26.1342 59.0464 26.9838C59.0195 27.1028 59.0042 27.2041 58.9883 27.3088L58.9882 27.3089C58.9821 27.3492 58.9759 27.39 58.969 27.4325C58.9657 27.4398 58.9639 27.45 58.9618 27.4613C58.9577 27.4841 58.9528 27.5117 58.9336 27.5306C58.5143 28.4479 58.4822 29.3443 59.1158 30.1097C59.8888 31.0435 60.1732 32.0559 59.8966 33.2601C59.8082 33.4031 59.727 33.5447 59.6474 33.6832L59.6474 33.6833L59.6473 33.6834C59.5103 33.922 59.3784 34.1518 59.2239 34.3652C58.8301 34.9092 58.5741 35.4809 58.6608 36.2094C58.7016 36.4298 58.7429 36.6464 58.7838 36.8612L58.784 36.862L58.784 36.862L58.784 36.8621C58.8757 37.3433 58.9659 37.8159 59.0446 38.3048C58.9951 38.4487 58.9482 38.589 58.9018 38.7275L58.9017 38.7278C58.807 39.0108 58.7148 39.2864 58.6084 39.5704C58.4449 39.7114 58.2846 39.8504 58.1255 39.9885L58.1226 39.9909L58.1215 39.9919C57.7861 40.2829 57.4555 40.5697 57.1097 40.8614C56.994 40.9715 56.8908 41.0775 56.7848 41.1864L56.7845 41.1867L56.7844 41.1868L56.7843 41.1869L56.7841 41.1871L56.7827 41.1885L56.7827 41.1885C56.7172 41.2558 56.6505 41.3243 56.5791 41.3955C56.1729 41.9759 56.1439 42.6153 56.1151 43.2516L56.1151 43.2517C56.1077 43.4158 56.1002 43.5796 56.0863 43.7421C56.0878 43.7424 56.0878 43.7423 56.0862 43.7427C56.0831 43.7436 56.0735 43.747 56.0558 43.7617C56.0312 43.82 56.0142 43.8722 55.9968 43.9254L55.9968 43.9254L55.9967 43.9255C55.9813 43.9726 55.9657 44.0204 55.9444 44.0739C55.8951 44.1642 55.85 44.2503 55.8056 44.3351C55.7402 44.4599 55.6762 44.5819 55.6024 44.7109C55.5482 44.7695 55.4966 44.8264 55.4458 44.8822L55.4456 44.8824C55.3303 45.0093 55.2194 45.1315 55.0921 45.2593C55.0222 45.2964 54.9533 45.3331 54.8851 45.3695C54.5634 45.5411 54.2554 45.7054 53.9171 45.8654C52.9817 45.9647 52.2346 46.2982 51.8166 47.156C51.8166 47.1562 51.8165 47.1564 51.8163 47.1566C51.8161 47.1568 51.816 47.157 51.8157 47.1573C51.8153 47.1576 51.8148 47.1581 51.8142 47.1586C51.8136 47.1591 51.8129 47.1596 51.8121 47.1602C51.8083 47.1629 51.8013 47.1676 51.7879 47.1757C51.7493 47.2433 51.7322 47.2976 51.7153 47.3517L51.7097 47.3695C51.7089 47.3699 51.7085 47.3707 51.7078 47.372C51.7059 47.3755 51.7019 47.3831 51.6838 47.3994C51.6577 47.4572 51.6387 47.5085 51.6194 47.5609C51.6023 47.6071 51.585 47.654 51.5622 47.7069C51.502 47.8112 51.4447 47.9124 51.3882 48.0124L51.3873 48.0139L51.3871 48.0144C51.2778 48.2075 51.1712 48.3958 51.052 48.5923C50.2132 49.5104 49.1968 49.7551 48.0379 49.5597C47.1911 49.417 46.4913 49.6878 45.8682 50.2733C45.4964 50.6227 45.0804 50.9253 44.6477 51.24L44.6477 51.24L44.6476 51.2401L44.6474 51.2402C44.5646 51.3005 44.4811 51.3612 44.3971 51.4228C43.6746 51.4254 42.9964 51.4243 42.3 51.4004C42.2487 51.3745 42.2063 51.3597 42.1642 51.3449L42.1641 51.3449L42.1641 51.3449C42.146 51.3386 42.1279 51.3323 42.1092 51.3251C42.1063 51.3211 42.1006 51.32 42.0937 51.3185C42.084 51.3165 42.072 51.314 42.062 51.3025C42.0236 51.2797 41.9913 51.2639 41.9605 51.2488C41.9397 51.2386 41.9195 51.2288 41.8986 51.2173C41.8966 51.2132 41.8918 51.2117 41.8857 51.2098C41.877 51.207 41.8656 51.2034 41.8561 51.1902C41.8051 51.1588 41.7634 51.1405 41.7232 51.1227C41.7108 51.1173 41.6985 51.1119 41.6862 51.1062C41.6856 51.1043 41.6838 51.1034 41.6812 51.1019C41.6762 51.0992 41.6678 51.0947 41.6574 51.0781C41.5984 51.0437 41.5502 51.0264 41.5027 51.0093L41.4725 50.9983C41.4717 50.9966 41.4699 50.9955 41.4667 50.9937C41.4608 50.9904 41.4502 50.9844 41.433 50.9666C40.7463 50.6897 40.0954 50.6996 39.4547 51.0074C39.0917 51.1818 38.7284 51.3556 38.3204 51.5317C38.2442 51.5467 38.1751 51.5651 38.1102 51.5825C38.0098 51.6093 37.9194 51.6335 37.828 51.6379C36.7643 51.6899 35.9512 51.1962 35.2686 50.4343C34.6055 49.6942 33.8163 49.3391 32.7666 49.6071C31.754 49.7245 30.9068 49.4565 30.1498 48.8064C30.0902 48.7274 30.0321 48.6515 29.9749 48.5769C29.8499 48.4138 29.7295 48.2566 29.6085 48.0859C29.5839 48.0306 29.5598 47.9911 29.5369 47.9532L29.5369 47.9532C29.5287 47.9397 29.5206 47.9264 29.5127 47.9127C29.5135 47.9106 29.5125 47.9085 29.5108 47.9054C29.508 47.8998 29.5033 47.8907 29.5035 47.871C29.4726 47.7902 29.4412 47.7403 29.4081 47.6897C29.4079 47.6896 29.4078 47.6895 29.4077 47.6893C29.4077 47.6892 29.4077 47.689 29.4077 47.6888L29.4079 47.6864C29.4085 47.6821 29.4098 47.6719 29.4097 47.647C29.2126 47.3223 29.0158 47.0229 28.8137 46.7155L28.8126 46.7138L28.8126 46.7137C28.7625 46.6376 28.7122 46.5611 28.6615 46.4835C28.6259 46.4506 28.5975 46.4354 28.5696 46.4205L28.5537 46.412L28.5536 46.4115C28.5535 46.4113 28.5534 46.411 28.5532 46.4108C28.553 46.4106 28.5528 46.4104 28.5526 46.4101L28.5506 46.4085C28.5466 46.4054 28.5386 46.3993 28.5263 46.3771C28.138 46.1969 27.7718 46.036 27.3953 45.9045C27.2474 45.8528 27.0958 45.8115 26.9398 45.7691C26.7984 45.7305 26.6533 45.691 26.5041 45.6419C26.4313 45.5956 26.3622 45.5533 26.2948 45.5119L26.2947 45.5119L26.2946 45.5118C26.1882 45.4466 26.086 45.3839 25.9804 45.3127C25.9501 45.2617 25.9217 45.2482 25.885 45.2429C25.8846 45.2405 25.8827 45.239 25.8797 45.2368C25.8741 45.2326 25.8648 45.2256 25.8549 45.2049C25.7832 45.1175 25.7133 45.0337 25.6444 44.9512L25.6437 44.9503L25.6436 44.9503C25.5063 44.7858 25.3732 44.6263 25.2391 44.4538C25.21 44.3917 25.1823 44.3493 25.1555 44.3083L25.1374 44.2804C25.1378 44.2791 25.1372 44.2779 25.1362 44.2757C25.134 44.271 25.1295 44.2613 25.1275 44.2347C25.0917 44.1404 25.0562 44.0499 25.0211 43.9606C24.9456 43.7685 24.8722 43.5815 24.8022 43.3721C24.8853 42.6273 24.7877 41.9683 24.3769 41.3422C24.0972 41.1167 23.821 40.9033 23.5425 40.688L23.5423 40.6878C23.3611 40.5477 23.1788 40.4068 22.9938 40.2613C22.9202 40.1683 22.8479 40.0778 22.7764 39.9882L22.7752 39.9866L22.775 39.9864C22.5978 39.7643 22.4249 39.5476 22.2452 39.3122C22.1347 38.9441 22.0376 38.6129 21.946 38.2379L21.9547 38.138C21.9829 37.815 22.0084 37.5222 22.0499 37.201C22.0794 37.1087 22.1066 37.0207 22.1331 36.9345C22.182 36.7762 22.2289 36.6241 22.2852 36.4635C22.3117 36.3955 22.3218 36.3426 22.3367 36.2649L22.3447 36.2235C22.3484 36.1007 22.3474 35.9958 22.3463 35.8861C22.3457 35.8261 22.3451 35.7646 22.3453 35.6981C22.2855 35.0528 21.9359 34.5855 21.58 34.1098C21.4321 33.9119 21.283 33.7127 21.1533 33.4986C21.0763 32.9438 21.0287 32.422 21 31.8704C21.0322 31.7742 21.0569 31.6792 21.0809 31.5872C21.1225 31.4272 21.1619 31.2761 21.2343 31.1431C21.4851 30.6824 21.7626 30.2363 22.0537 29.7683L22.0537 29.7682L22.0537 29.7682L22.2007 29.5317C22.2084 29.3854 22.2229 29.2383 22.2372 29.0922C22.2779 28.6786 22.3177 28.2735 22.2015 27.9196C21.9021 27.0075 21.915 26.1564 22.3005 25.2663C22.368 25.1784 22.4333 25.0921 22.4975 25.0072C22.6702 24.7789 22.8352 24.5608 23.0142 24.3504C23.1389 24.2689 23.2697 24.1948 23.4005 24.1207L23.4005 24.1207C23.866 23.8571 24.3317 23.5934 24.5247 22.9949C24.5475 22.9055 24.573 22.8193 24.5979 22.7354C24.6585 22.5303 24.7152 22.3388 24.7194 22.1461C24.7414 21.1371 25.091 20.2691 25.7695 19.5183C25.7753 19.5175 25.78 19.5121 25.7852 19.506C25.7916 19.4986 25.7987 19.4903 25.8096 19.4888C25.8548 19.4707 25.8669 19.4482 25.877 19.4184C25.8817 19.4183 25.885 19.4143 25.889 19.4094C25.8946 19.4026 25.9016 19.3941 25.9156 19.3913C25.9768 19.3676 25.9866 19.3392 25.9925 19.2698C26.5446 19.0504 27.0738 18.8628 27.6434 18.6745C28.4797 18.4839 28.9945 17.9792 29.3361 17.251C29.5329 16.8316 29.7725 16.4322 30.0231 16.0147L30.0922 15.8994C30.1724 15.8406 30.2493 15.7833 30.3251 15.7268L30.3257 15.7264L30.3259 15.7262L30.3259 15.7262L30.326 15.7262C30.4905 15.6036 30.6496 15.4851 30.8241 15.3642C30.9089 15.3222 30.9607 15.285 31.0092 15.2461C31.006 15.2443 31.0042 15.2514 31.04 15.2532C31.16 15.2156 31.2441 15.1763 31.3264 15.1355C31.3245 15.1339 31.3235 15.1387 31.3692 15.1392C31.5345 15.1375 31.696 15.1378 31.8545 15.1381H31.8545H31.8546H31.8546C32.2252 15.1389 32.5801 15.1397 32.933 15.1135C33.2562 15.0896 33.5773 15.0369 33.8979 14.9842C34.0364 14.9615 34.1748 14.9387 34.3132 14.9184C34.3116 14.9181 34.3097 14.9207 34.3434 14.919C34.3978 14.8958 34.4396 14.8733 34.4844 14.8491C34.5125 14.8339 34.5418 14.8181 34.5762 14.8011C34.7088 14.7067 34.8249 14.6145 34.9373 14.5252L34.9374 14.5251L34.9374 14.5251L34.9375 14.5251C34.9939 14.4803 35.0493 14.4362 35.1055 14.393C35.6178 13.9986 36.1314 13.6058 36.6471 13.2159C36.7195 13.1612 36.7973 13.1137 36.8751 13.0663C36.911 13.0444 36.9469 13.0226 36.9822 13ZM50.7584 23.1365C50.7584 23.1365 50.752 23.136 50.7393 23.0846C50.719 23.0521 50.6896 23.0345 50.6477 23.0333C50.6477 23.0333 50.6493 23.0298 50.6369 22.976C50.6076 22.9555 50.5783 22.9349 50.5141 22.8501C50.4639 22.8088 50.4138 22.7674 50.3637 22.726C50.2549 22.6361 50.1461 22.5462 50.0362 22.4577C49.3518 21.9065 48.6666 21.3562 47.91 20.7811C47.8588 20.74 47.8095 20.6947 47.7602 20.6494C47.6534 20.5513 47.5467 20.4533 47.4211 20.398C47.1684 20.2869 46.9165 20.1726 46.6645 20.0582L46.6645 20.0582L46.6645 20.0582L46.6645 20.0582C45.8671 19.6963 45.0688 19.3339 44.2395 19.0711C43.6663 18.8894 43.0563 18.8238 42.4115 18.7545C42.1429 18.7256 41.8683 18.696 41.5877 18.6572C40.7967 18.6589 40.0057 18.6607 39.1503 18.6292C38.1734 18.8317 37.1965 19.0341 36.1456 19.2407L36.1456 19.2407C35.33 19.6144 34.5144 19.9881 33.6227 20.376C32.6049 21.1854 31.5871 21.9947 30.504 22.8347C29.895 23.6504 29.286 24.4661 28.6264 25.336C27.6409 27.0451 26.9775 28.8588 26.8003 30.9184C26.8145 31.879 26.8287 32.8396 26.8378 33.8952C26.915 34.3644 26.9922 34.8336 27.0587 35.3871C27.5168 36.571 27.975 37.7549 28.4441 39.011C28.4769 39.0452 28.5097 39.0794 28.5318 39.1258C28.5318 39.1258 28.5429 39.1377 28.5506 39.203C28.581 39.2317 28.6114 39.2604 28.6358 39.2838C28.6358 39.2838 28.6286 39.2871 28.6444 39.3602C29.53 40.8734 30.6626 42.1677 32.0981 43.2867L32.6245 43.6413C34.0227 44.5838 35.5042 45.3414 37.1741 45.687C37.1741 45.687 37.1755 45.6829 37.2286 45.736C37.3517 45.7533 37.4748 45.7707 37.6671 45.8371L37.6702 45.8374C38.3303 45.9171 38.9906 45.9969 39.7498 46.091C41.129 46.1473 42.4985 46.1058 43.8242 45.6806C43.8242 45.6806 43.8171 45.6875 43.8975 45.6851C44.0213 45.6459 44.1452 45.6068 44.3501 45.5675L44.3503 45.5674L44.3504 45.5674C44.8258 45.3905 45.3012 45.2135 45.8115 45.0393C45.8115 45.0393 45.8406 45.0198 45.9042 45.0211C45.956 44.9877 46.0077 44.9543 46.0567 44.918C46.0567 44.918 46.0576 44.9217 46.1111 44.9176C46.1275 44.9105 46.1439 44.9035 46.2325 44.8791C46.875 44.4988 47.5176 44.1185 48.2112 43.681C49.4257 43.0156 50.3754 42.0554 51.2584 40.9592C51.2685 40.9495 51.2763 40.9388 51.2866 40.9248C51.299 40.9079 51.3149 40.8862 51.3425 40.8555C51.3591 40.8228 51.3757 40.79 51.3954 40.7566C51.3954 40.7566 51.395 40.7534 51.4466 40.7283C51.4875 40.6643 51.5285 40.6003 51.6203 40.4818L51.6216 40.4794L51.6219 40.4788C52.2169 39.359 52.8119 38.2391 53.4248 37.0754C53.4248 37.0754 53.4232 37.0277 53.4708 36.9834C53.4861 36.9226 53.5013 36.8617 53.5376 36.7231L53.5377 36.7228L53.5377 36.7227L53.5378 36.7225C53.7119 36.0032 53.886 35.2838 54.1079 34.4945C54.1271 34.2649 54.1464 34.0353 54.2052 33.7284C54.195 32.791 54.1848 31.8535 54.1797 30.8492C54.1712 30.8054 54.1627 30.7616 54.1684 30.6275C54.0018 29.1672 53.609 27.7725 52.9372 26.3835L52.9361 26.382L52.936 26.3817C52.2445 25.3398 51.553 24.2979 50.8621 23.245C50.8621 23.245 50.8513 23.243 50.8407 23.194C50.8224 23.1622 50.7949 23.1452 50.7584 23.1365ZM32.3918 66.3754C32.2779 66.3754 32.1641 66.3754 31.9963 66.3399C31.9262 66.2534 31.8533 66.1715 31.7825 66.0918L31.7824 66.0917C31.5896 65.8748 31.411 65.6739 31.338 65.4401C31.1522 64.8453 31.0082 64.2375 30.8643 63.6297L30.8643 63.6297L30.8642 63.6295C30.801 63.3625 30.7377 63.0955 30.6709 62.8296C30.4958 62.1325 30.3188 61.4359 30.1368 60.7195L30.1362 60.7171L30.1316 60.6989L30.1315 60.6985C30.0529 60.3891 29.9733 60.0761 29.8926 59.7576C29.3659 59.9908 28.9039 60.1953 28.402 60.3984C27.8197 60.634 27.2499 60.87 26.6786 61.1066L26.6779 61.1069C26.2231 61.2953 25.7674 61.484 25.3039 61.6732C25.1205 61.7386 24.9492 61.8056 24.7826 61.8706L24.7824 61.8707L24.7823 61.8708L24.7821 61.8708C24.6343 61.9286 24.4902 61.9849 24.3448 62.0373C23.7961 62.2353 23.3887 62.0789 23.0976 61.5256L23.0974 61.4774C23.0963 61.2716 23.0954 61.1005 23.1129 60.9027C23.1512 60.8257 23.1884 60.7505 23.225 60.6765L23.2256 60.6752L23.2261 60.6742C23.3409 60.4419 23.4499 60.2211 23.5733 59.993C23.5973 59.9589 23.6087 59.9312 23.6203 59.9029L23.6204 59.9028C23.6251 59.8912 23.6299 59.8795 23.6357 59.8672C23.6403 59.8642 23.6417 59.858 23.6433 59.8508C23.6456 59.8406 23.6484 59.8283 23.6614 59.8198C23.6864 59.7787 23.702 59.7438 23.7175 59.7092L23.7175 59.7091C23.7256 59.691 23.7337 59.6729 23.7431 59.654C23.7477 59.6513 23.7492 59.6454 23.7509 59.6385C23.7534 59.6286 23.7564 59.6166 23.7698 59.6084C23.7953 59.5671 23.811 59.5318 23.8265 59.497C23.8346 59.4788 23.8426 59.4606 23.852 59.4418C23.8567 59.4395 23.8581 59.434 23.8597 59.4274C23.8621 59.4181 23.865 59.4065 23.8787 59.3984C23.9042 59.3562 23.9195 59.3201 23.9347 59.2845C23.9425 59.2661 23.9502 59.2479 23.9593 59.229C23.9639 59.2268 23.9653 59.2215 23.9671 59.2151C23.9696 59.206 23.9728 59.1945 23.9868 59.1866C24.0126 59.1441 24.0279 59.1075 24.0429 59.0715C24.0506 59.0532 24.0582 59.035 24.0671 59.0164C24.0716 59.0146 24.073 59.0097 24.0748 59.0036C24.0773 58.9949 24.0805 58.9838 24.0949 58.976C24.1217 58.9314 24.1372 58.8931 24.1523 58.8555C24.1593 58.8381 24.1663 58.8209 24.1742 58.8032C24.1784 58.8016 24.1798 58.7973 24.1816 58.7918C24.1842 58.7836 24.1877 58.7728 24.2025 58.7649C24.23 58.7191 24.2454 58.6797 24.2606 58.641C24.2672 58.6241 24.2738 58.6073 24.2814 58.5902C24.2853 58.5887 24.2867 58.5847 24.2885 58.5795C24.2913 58.5716 24.2951 58.561 24.3103 58.553C24.3392 58.5049 24.355 58.4637 24.3705 58.4232L24.3705 58.4231C24.3764 58.4077 24.3823 58.3924 24.3888 58.3769C24.3922 58.3756 24.3935 58.3723 24.3953 58.3678C24.3981 58.3606 24.4021 58.3505 24.4178 58.3421C24.4473 58.2924 24.463 58.25 24.4785 58.2083L24.4785 58.2083C24.484 58.1934 24.4895 58.1786 24.4956 58.1636C24.4987 58.1625 24.5 58.1594 24.5018 58.1553C24.5047 58.1484 24.5089 58.1385 24.5249 58.1301C24.5554 58.0788 24.5713 58.0352 24.5869 57.9923C24.592 57.9782 24.5971 57.9643 24.6027 57.9501C24.6055 57.9492 24.6067 57.9464 24.6084 57.9427C24.6114 57.9362 24.6157 57.9267 24.6321 57.9181C24.6628 57.866 24.6786 57.8217 24.6942 57.7781L24.7014 57.758L24.7094 57.7366C24.7122 57.7356 24.7134 57.733 24.7151 57.7293C24.718 57.7229 24.7224 57.7135 24.7389 57.7048C24.7716 57.65 24.788 57.6039 24.8041 57.5584L24.8041 57.5584L24.8077 57.5482L24.8169 57.5228C24.8191 57.522 24.8201 57.52 24.8216 57.5171C24.8244 57.5115 24.8289 57.5028 24.8461 57.4935C24.8786 57.4381 24.8949 57.3915 24.9108 57.3456L24.9176 57.3262L24.9237 57.3093C24.9259 57.3085 24.9269 57.3065 24.9284 57.3035C24.9312 57.298 24.9355 57.2894 24.9522 57.2807C24.9736 57.2457 24.9879 57.2143 25.0031 57.1812L25.0031 57.1811C25.0168 57.1512 25.0312 57.1198 25.052 57.0828C25.1811 56.8308 25.3032 56.5848 25.4248 56.3397C25.5503 56.0868 25.6753 55.835 25.8069 55.5788C25.8286 55.5416 25.8441 55.5087 25.8598 55.4749C25.8757 55.441 25.8919 55.4063 25.9154 55.3657C26.2776 54.6587 26.6309 53.959 26.9841 53.2594L26.9842 53.2593C27.2617 52.7097 27.5392 52.1601 27.821 51.6071C27.8495 51.5586 27.8671 51.5189 27.8842 51.4805C27.8914 51.4642 27.8986 51.4481 27.9064 51.4317C27.9094 51.4302 27.9102 51.4271 27.9112 51.4228C27.913 51.4158 27.9156 51.4057 27.9298 51.3951C27.9597 51.3449 27.9775 51.3037 27.9948 51.2637C28.0011 51.2489 28.0074 51.2343 28.0143 51.2194C28.0168 51.2182 28.0177 51.2155 28.0189 51.2117C28.0211 51.2046 28.0247 51.1934 28.0425 51.1789C28.2079 50.8714 28.3564 50.5774 28.5088 50.2759C28.5518 50.1908 28.5951 50.1051 28.6392 50.0183C28.6525 49.9849 28.655 49.9666 28.6572 49.9505L28.6588 49.9401C28.6592 49.9399 28.6595 49.9397 28.6599 49.9393L28.6608 49.9381C28.6629 49.9352 28.6674 49.9291 28.6874 49.9182C28.7262 49.8523 28.743 49.7984 28.7596 49.745L28.7654 49.7265C28.7662 49.7262 28.7667 49.7256 28.7675 49.7245C28.7698 49.7213 28.7751 49.7142 28.7982 49.6994C28.8452 49.6062 28.8868 49.5164 28.9277 49.4282C28.9854 49.3037 29.0416 49.1824 29.1094 49.0593C29.2078 48.9654 29.2723 48.8772 29.3214 48.81L29.3215 48.8101L29.3218 48.8104C29.5783 49.0552 29.8102 49.2764 30.0744 49.5162C30.9931 50.1684 31.9563 50.4292 33.0793 50.1431C33.8563 50.074 34.3751 50.4131 34.8938 50.9056C35.3667 51.3546 35.9366 51.7599 36.5373 52.0009C37.3051 52.3088 38.1424 52.3624 38.9513 51.877C39.406 51.7176 39.8189 51.5589 40.3312 51.3619L40.3318 51.3616L40.3318 51.3616L40.3324 51.3614L40.333 51.3611L40.3329 51.3614L40.3328 51.3616C40.1358 51.7948 40.0001 52.0931 39.841 52.4116C39.8197 52.4491 39.8039 52.4819 39.7881 52.5144C39.7715 52.5489 39.755 52.5831 39.7321 52.6226C39.7107 52.6604 39.6949 52.6935 39.6793 52.7264C39.6629 52.761 39.6465 52.7954 39.6238 52.8349C39.6023 52.8726 39.5867 52.9058 39.5711 52.9387C39.5547 52.9735 39.5384 53.0081 39.5154 53.0476C39.4937 53.0854 39.4781 53.1187 39.4624 53.1519C39.4463 53.1863 39.4301 53.2206 39.4074 53.2597C39.3642 53.3377 39.3465 53.3971 39.3296 53.4572C39.3298 53.4574 39.3298 53.4575 39.3297 53.4577C39.3294 53.458 39.3286 53.4584 39.3265 53.4596C39.3229 53.4617 39.3154 53.466 39.3007 53.4753C39.2696 53.5379 39.2558 53.5895 39.2384 53.6548C39.2338 53.6718 39.2291 53.6897 39.2237 53.709C39.1413 53.8598 39.0734 53.9784 38.9763 54.1194C38.5028 55.0507 38.0584 55.9596 37.6152 56.8699C37.6163 56.8714 37.6135 56.8736 37.584 56.8953C37.4232 57.208 37.2693 57.5154 37.1155 57.8227C36.9533 58.1467 36.7912 58.4706 36.6211 58.8001C36.4411 59.1477 36.2685 59.49 36.0958 59.8324C35.9177 60.1857 35.7394 60.5392 35.5529 60.8988C35.2234 61.5317 34.9022 62.1622 34.5826 62.7895C34.1232 63.6912 33.6672 64.5862 33.1947 65.4725C33.0686 65.7091 32.8662 65.905 32.6638 66.101C32.5707 66.1911 32.4775 66.2813 32.3918 66.3754ZM48.4433 66.3396C48.6789 66.3756 48.8619 66.3756 49.0449 66.3756C49.5033 66.0739 49.669 65.6137 49.7887 65.1029C50.0994 63.7779 50.4262 62.4566 50.753 61.1354L50.753 61.1352L50.7532 61.1345C50.83 60.8242 50.9067 60.5139 50.9833 60.2035C51.0051 60.1148 51.0396 60.0292 51.0777 59.9348L51.0777 59.9347C51.0966 59.888 51.1162 59.8391 51.1357 59.7867L51.1357 59.7867L51.1359 59.7867C51.3588 59.8717 51.5534 59.9459 51.7703 60.0461C51.7838 60.0618 51.7988 60.0664 51.8102 60.07C51.8178 60.0723 51.8238 60.0742 51.827 60.0784C51.8333 60.0806 51.8395 60.0828 51.8457 60.0848C51.857 60.0886 51.868 60.0921 51.8791 60.0957C51.9234 60.1098 51.9668 60.1236 52.0179 60.1509C52.0285 60.1696 52.0345 60.1742 52.0374 60.1763C52.0385 60.1772 52.0391 60.1776 52.0394 60.1784L52.0609 60.1837C52.1214 60.1985 52.183 60.2135 52.262 60.25C52.4321 60.3226 52.5971 60.3889 52.7621 60.4552L52.7623 60.4552C52.9395 60.5264 53.1167 60.5976 53.3002 60.6765C53.3335 60.7008 53.3519 60.7068 53.3797 60.7157L53.3858 60.7177L53.4028 60.7234C53.4154 60.7277 53.4271 60.7315 53.4382 60.7352C53.483 60.7499 53.5175 60.7612 53.5628 60.7897C53.8955 60.9291 54.2228 61.0603 54.5526 61.1925L54.553 61.1926L54.5539 61.193C54.8141 61.2973 55.0758 61.4021 55.3428 61.5122C55.3579 61.5271 55.3787 61.536 55.3969 61.5438C55.411 61.5499 55.4235 61.5553 55.4306 61.5622C55.44 61.5715 55.4615 61.575 55.4827 61.5785C55.498 61.581 55.5131 61.5835 55.5232 61.5881C55.7131 61.645 55.8949 61.7296 56.0761 61.814L56.0761 61.8141L56.0762 61.8141C56.5274 62.0242 56.9752 62.2328 57.536 62.007C57.5657 62.0005 57.5747 61.9952 57.5787 61.9929L57.5805 61.9919C57.5811 61.9917 57.5815 61.9915 57.582 61.9916C57.5881 61.9566 57.6045 61.9297 57.6583 61.9054C57.6725 61.9019 57.6784 61.8944 57.6827 61.8889C57.6835 61.8878 57.6842 61.8869 57.6849 61.886C57.6855 61.8853 57.6861 61.8847 57.6867 61.8842C57.688 61.8831 57.6893 61.8824 57.6909 61.8824C57.6991 61.8481 57.7132 61.8219 57.7636 61.7963C58.0819 61.2667 57.855 60.8145 57.6125 60.3314L57.5824 60.2712C57.5652 60.2353 57.5489 60.2103 57.5327 60.1852C57.5189 60.164 57.5051 60.1427 57.4908 60.1149C57.4893 60.0971 57.4836 60.0863 57.4796 60.0787C57.4766 60.073 57.4746 60.0691 57.476 60.0655C57.466 60.0476 57.4555 60.0307 57.4448 60.0133L57.4448 60.0133L57.4447 60.0132C57.4241 59.9798 57.4025 59.9447 57.3806 59.8976C57.3802 59.8813 57.3748 59.8721 57.3711 59.8657C57.3685 59.8611 57.3667 59.858 57.368 59.8548C57.3642 59.8479 57.3602 59.841 57.3562 59.8342C57.3505 59.8246 57.3446 59.815 57.3387 59.8052L57.3386 59.805C57.3175 59.7705 57.2954 59.7341 57.273 59.6848C57.2726 59.6678 57.2674 59.6587 57.2638 59.6526C57.2614 59.6484 57.2598 59.6457 57.261 59.6428C57.252 59.6269 57.2428 59.6117 57.2333 59.5962L57.2331 59.5958C57.2114 59.5602 57.1886 59.5227 57.1655 59.4714C57.165 59.4538 57.16 59.445 57.1568 59.4394C57.1548 59.4358 57.1534 59.4335 57.1544 59.431C57.1461 59.4168 57.1377 59.4031 57.1292 59.3891L57.1291 59.389C57.1063 59.3517 57.0825 59.3127 57.0582 59.2584C57.0576 59.2401 57.0527 59.2315 57.0496 59.2262C57.0478 59.2231 57.0467 59.221 57.0474 59.2188C57.0398 59.2059 57.0321 59.1934 57.0244 59.1808L57.0242 59.1805C57.0005 59.142 56.9758 59.1019 56.9507 59.0453C56.9502 59.0266 56.9453 59.0181 56.9424 59.0129C56.9407 59.01 56.9397 59.0081 56.9403 59.006C56.933 58.9938 56.9255 58.982 56.918 58.97L56.918 58.9699C56.8934 58.9307 56.868 58.89 56.842 58.832C56.8415 58.8125 56.8371 58.8044 56.8346 58.7997C56.8333 58.7972 56.8325 58.7957 56.833 58.794C56.8268 58.7839 56.8205 58.774 56.8142 58.7639L56.8139 58.7634C56.7882 58.7225 56.7617 58.6803 56.7348 58.6188C56.7343 58.5989 56.73 58.5908 56.7276 58.5862C56.7271 58.5852 56.7266 58.5843 56.7263 58.5835C56.726 58.5826 56.7258 58.5818 56.7261 58.5809L56.7078 58.5522C56.6812 58.5107 56.6539 58.468 56.6262 58.4054C56.6258 58.3847 56.622 58.3769 56.62 58.3728C56.6191 58.3709 56.6185 58.3698 56.6189 58.3685L56.6035 58.3446C56.5758 58.3017 56.5475 58.2578 56.5189 58.1922C56.5186 58.1711 56.5149 58.1634 56.513 58.1594L56.512 58.1571C56.5118 58.1565 56.5118 58.1559 56.5119 58.1554L56.4972 58.1326C56.4693 58.0893 56.4407 58.0452 56.4119 57.9789C56.4118 57.9682 56.4108 57.961 56.4096 57.9559C56.4085 57.9509 56.4071 57.948 56.4061 57.946C56.4052 57.9442 56.4047 57.9431 56.405 57.9419L56.3903 57.9195C56.3618 57.8761 56.3327 57.8319 56.3037 57.7654C56.3038 57.7438 56.3005 57.7362 56.2988 57.7324C56.2981 57.7308 56.2977 57.7299 56.298 57.7289L56.2847 57.709C56.2553 57.6649 56.2253 57.62 56.1956 57.5518C56.196 57.5296 56.193 57.5223 56.1917 57.5189C56.1911 57.5176 56.1908 57.5168 56.191 57.516L56.1796 57.499C56.1494 57.4541 56.1188 57.4085 56.0886 57.3385C56.0893 57.3075 56.0835 57.3054 56.0843 57.3025L56.0728 57.2856C56.0422 57.2406 56.0111 57.195 55.9807 57.1247C55.9813 57.1015 55.9787 57.0945 55.9776 57.0914L55.9772 57.0903L55.9771 57.0891L55.8281 56.8024C55.5003 56.1717 55.1715 55.5392 54.8374 54.8792C54.7184 54.637 54.6008 54.4022 54.4835 54.168L54.4834 54.1679C54.3402 53.882 54.1974 53.597 54.0532 53.3007C53.9466 53.0874 53.8412 52.8832 53.7359 52.6793C53.6281 52.4702 53.5203 52.2614 53.4114 52.0432C53.3585 51.9383 53.3068 51.8429 53.2549 51.7473L53.2548 51.7472L53.2548 51.7471L53.2547 51.7469C53.205 51.6554 53.1552 51.5636 53.1042 51.4631C53.0852 51.4214 53.0673 51.3886 53.05 51.3567L53.05 51.3567L53.0499 51.3567C53.0321 51.3239 53.0148 51.292 52.9972 51.2525C52.9965 51.2323 52.9929 51.2242 52.991 51.2199C52.9904 51.2186 52.99 51.2176 52.9898 51.2167C52.9897 51.2162 52.9898 51.2157 52.9899 51.2152L52.9732 51.1889C52.9462 51.1467 52.9183 51.1032 52.8899 51.0391C52.8892 51.0172 52.8855 51.0099 52.8836 51.0061C52.8829 51.0047 52.8825 51.0038 52.8825 51.0029L52.7859 50.8222C52.5813 50.4399 52.3759 50.0562 52.1655 49.6449C52.1285 49.5673 52.0926 49.4964 52.0573 49.4265C52.0101 49.3331 51.9638 49.2416 51.9168 49.1382C51.8407 49.0043 51.7669 48.9065 51.6682 48.7899C50.8974 49.8797 49.3987 50.4858 48.1183 50.2003C47.3831 50.0364 46.7881 50.2526 46.2406 50.7805C45.898 51.1108 45.5017 51.3854 45.0945 51.6677L45.0944 51.6677L45.0943 51.6678L45.094 51.668C44.9656 51.757 44.836 51.8468 44.7067 51.9393C43.6669 52.3381 42.6861 52.2849 41.6986 51.7726C41.6706 51.7556 41.6477 51.7434 41.6263 51.732L41.6262 51.7319C41.5971 51.7164 41.5708 51.7025 41.5385 51.68C41.528 51.665 41.5112 51.6596 41.4967 51.6549C41.4866 51.6517 41.4776 51.6488 41.4727 51.6432C41.4229 51.6339 41.3902 51.6229 41.3529 51.5717C41.348 51.559 41.348 51.5525 41.3492 51.5499L41.3525 51.5507C41.3525 51.5484 41.3503 51.5474 41.3492 51.5499C41.2631 51.5298 41.1767 51.5049 41.0647 51.4587C41.042 51.44 41.0351 51.4385 41.0321 51.4378L41.0308 51.4375C40.9428 51.4365 40.8572 51.4365 40.7002 51.4365L40.7003 51.4366C40.8935 51.8251 41.0684 52.1765 41.2479 52.5662C41.2684 52.6126 41.2877 52.6484 41.3067 52.6837C41.3238 52.7155 41.3407 52.7469 41.3582 52.7853C41.3764 52.8259 41.394 52.8587 41.4117 52.8916C41.4294 52.9245 41.4471 52.9575 41.4654 52.9983C41.4838 53.0395 41.5017 53.0726 41.5196 53.1058C41.5371 53.1383 41.5546 53.1708 41.5729 53.211C41.5915 53.2517 41.6094 53.2845 41.6273 53.3174C41.6451 53.3501 41.663 53.3828 41.6815 53.4232C41.7002 53.464 41.7181 53.4969 41.736 53.5298C41.7538 53.5624 41.7716 53.595 41.7901 53.6354C41.8069 53.673 41.8231 53.704 41.839 53.7346C41.8579 53.7708 41.8764 53.8063 41.8951 53.8512C41.8958 53.8753 41.8941 53.8828 41.8938 53.8843C41.8937 53.8845 41.8937 53.8846 41.8937 53.8846L41.894 53.8843C41.931 53.933 41.9667 53.9833 42.0036 54.0662C42.0043 54.0875 42.0033 54.0954 42.003 54.0987C42.0028 54.1004 42.0027 54.1008 42.0031 54.1011C42.0383 54.1499 42.0722 54.1977 42.1068 54.2764C42.1075 54.3073 42.1126 54.3091 42.1121 54.3118L42.1222 54.327C42.1526 54.3724 42.1834 54.4185 42.2147 54.4897C42.2152 54.5145 42.2175 54.5208 42.2185 54.5233C42.2187 54.524 42.2188 54.5244 42.2188 54.5248L42.2251 54.5339C42.2575 54.5811 42.29 54.6283 42.3228 54.7033C42.3233 54.7347 42.3241 54.7372 42.3251 54.7381C42.3608 54.7878 42.3957 54.8364 42.4307 54.9168C42.4308 54.93 42.4306 54.9383 42.4304 54.9434C42.4304 54.9451 42.4304 54.9465 42.4304 54.9476C42.4303 54.951 42.4305 54.9516 42.4313 54.9516C42.4678 54.9987 42.5026 55.0458 42.5391 55.1235C42.6998 55.4468 42.8601 55.7625 43.0208 56.0791L43.021 56.0795C43.182 56.3965 43.3434 56.7144 43.5061 57.0419C43.6884 57.4091 43.87 57.7713 44.0509 58.1322L44.051 58.1324L44.051 58.1325C44.3682 58.7652 44.6833 59.3938 44.9967 60.0383C45.2942 60.6264 45.5933 61.2001 45.8938 61.7766L45.8942 61.7773C46.0894 62.1516 46.2851 62.5271 46.4815 62.9085C46.4839 62.9334 46.4883 62.9444 46.4906 62.9504C46.4919 62.9535 46.4926 62.9553 46.4922 62.9569L46.5101 62.9856C46.5366 63.0277 46.5638 63.071 46.5916 63.1348C46.5922 63.1568 46.5957 63.1641 46.5974 63.1677L46.5983 63.1697C46.5984 63.1701 46.5984 63.1705 46.5984 63.171L46.6107 63.1896C46.6403 63.2343 46.6703 63.2796 46.7006 63.3489C46.701 63.376 46.7032 63.3812 46.704 63.3832L46.7043 63.384L46.7077 63.3889C46.7415 63.4373 46.7749 63.4851 46.8084 63.5623C46.8084 63.5791 46.8086 63.5878 46.809 63.5923C46.8091 63.5935 46.8092 63.5944 46.8093 63.5951C46.8096 63.5968 46.8099 63.5973 46.8103 63.5976C46.8457 63.6431 46.8798 63.6878 46.9153 63.7619L46.9748 63.8802C47.2549 64.4379 47.5255 64.9766 47.8226 65.5002C47.9615 65.745 48.1411 65.9666 48.3442 66.2171L48.3451 66.2181C48.3772 66.2578 48.41 66.2982 48.4433 66.3396ZM27.5962 34.4279L27.5962 34.4275C27.5575 34.0038 27.5188 33.5802 27.4724 33.1112C27.4838 32.8405 27.4912 32.5726 27.4985 32.3072V32.3072V32.3072C27.5178 31.61 27.5367 30.9296 27.6253 30.2585C27.8135 28.8334 28.3043 27.4919 28.9831 26.1814C29.4368 25.5386 29.8874 24.9136 30.3414 24.2839L30.3415 24.2838C30.555 23.9876 30.7692 23.6904 30.9849 23.3899C30.9964 23.3622 31.0058 23.3575 31.0225 23.3492L31.0318 23.3445C31.0836 23.314 31.099 23.2877 31.1009 23.2535C31.1009 23.2535 31.1159 23.2532 31.1386 23.2393C31.1904 23.2072 31.2055 23.181 31.2066 23.1467C31.2066 23.1467 31.2231 23.1459 31.2449 23.1311C31.2948 23.0986 31.3096 23.0731 31.3113 23.0399C31.3113 23.0399 31.3294 23.0396 31.3513 23.0246C31.4012 22.9923 31.4162 22.9672 31.4181 22.9343L31.4184 22.9342L31.4184 22.9341C32.194 22.3432 32.9695 21.7523 33.7956 21.1325C33.8827 21.0895 33.9017 21.0629 33.9031 21.0237C33.9031 21.0237 33.9107 21.0296 33.9146 21.0268L34.3577 20.829C34.9929 20.5456 35.6296 20.2614 36.2858 19.9656C36.7901 19.8433 37.2824 19.7283 37.7803 19.6119L37.7807 19.6118C38.0673 19.5448 38.3557 19.4774 38.6493 19.4079C39.0135 19.4114 39.3755 19.4094 39.7355 19.4074H39.7356C40.7042 19.402 41.6583 19.3967 42.601 19.498C44.4961 19.7017 46.2164 20.4559 47.8372 21.5199C48.4232 21.9864 48.9737 22.444 49.5631 22.9402C49.6203 23.0076 49.6465 23.0227 49.6807 23.0242C49.6807 23.0242 49.681 23.0392 49.6948 23.062C49.7267 23.114 49.753 23.129 49.7875 23.1297C49.7875 23.1297 49.7884 23.1464 49.8032 23.1681C49.8358 23.218 49.8612 23.2331 49.8944 23.2353C49.8944 23.2353 49.8941 23.2521 49.9085 23.2754C49.941 23.3275 49.9671 23.3435 50.0011 23.3466C50.0011 23.3466 50.0007 23.3589 50.0127 23.3836C50.0439 23.439 50.0716 23.4557 50.1077 23.4586C50.1077 23.4586 50.1077 23.4661 50.1177 23.4916C50.1466 23.5493 50.1746 23.5679 50.2117 23.5727C50.2586 23.6363 50.3056 23.6998 50.3796 23.7763C50.9618 24.6297 51.517 25.4703 52.1044 26.364C52.1711 26.4662 52.2057 26.5153 52.2402 26.5643C52.2402 26.5643 52.2373 26.5669 52.2378 26.569C52.3376 26.8891 52.4379 27.2091 52.5382 27.5289L52.5382 27.529C52.8166 28.417 53.0947 29.3042 53.3624 30.1945C53.4068 30.342 53.4261 30.497 53.4466 30.6605C53.4608 30.7745 53.4756 30.8925 53.4997 31.015C53.5208 31.8674 53.5198 32.6835 53.5007 33.584C53.4676 33.8588 53.4526 34.0491 53.4376 34.2394L53.4376 34.2396C53.4284 34.2854 53.4192 34.3312 53.4119 34.4121C53.2366 35.1247 53.0595 35.8022 52.8523 36.5413C52.8092 36.6698 52.7963 36.7366 52.7833 36.8034L52.7833 36.8034C52.7833 36.8034 52.7815 36.8044 52.7805 36.8058C52.78 36.8065 52.7797 36.8072 52.7801 36.808C52.1119 37.9923 51.4428 39.1744 50.7408 40.4045C50.6781 40.475 50.6622 40.5047 50.6603 40.5419C50.6603 40.5419 50.6481 40.5441 50.6238 40.5661C50.5708 40.6395 50.5423 40.691 50.5137 40.7425C50.5137 40.7425 50.5119 40.7402 50.5098 40.7389C50.5087 40.7382 50.5075 40.7377 50.5064 40.7379L50.3782 40.8552C49.527 41.6338 48.6759 42.4123 47.7676 43.2012C47.6553 43.248 47.606 43.2833 47.5567 43.3185L47.5567 43.3185C47.5567 43.3185 47.5512 43.3155 47.5216 43.3232C47.467 43.3598 47.4419 43.3887 47.4168 43.4176L47.4168 43.4177C47.4168 43.4177 47.376 43.4228 47.3597 43.4351C47.2067 43.5103 47.0543 43.5849 46.9023 43.6594L46.9023 43.6595C46.3077 43.9509 45.7183 44.2398 45.1138 44.5468C44.4093 44.7763 43.73 44.9827 43.0465 45.174C42.9627 45.1974 42.8732 45.2008 42.7762 45.2044C42.7105 45.2068 42.6412 45.2094 42.5679 45.2184C42.4192 45.2384 42.2789 45.2548 42.1376 45.2713L42.1373 45.2713L42.1372 45.2714C42.001 45.2873 41.8638 45.3033 41.7171 45.3228C40.3017 45.2466 38.9254 45.158 37.5496 45.0624C37.4905 45.0583 37.4326 45.0347 37.3674 45.0081C37.3259 44.9912 37.2814 44.973 37.2316 44.9579C35.6433 44.5288 34.2043 43.8597 32.8633 42.8997C31.7291 42.0135 30.6972 41.0721 29.8968 39.9046C29.7847 39.741 29.677 39.5744 29.5664 39.4034L29.5664 39.4033L29.5663 39.4033C29.4615 39.2412 29.3542 39.0753 29.2382 38.9043C29.2164 38.8842 29.211 38.868 29.2038 38.846C29.2015 38.8388 29.1989 38.831 29.1955 38.8222C29.1531 38.758 29.1245 38.7292 29.0959 38.7004C29.0959 38.7004 29.0926 38.7196 29.0974 38.6852C29.0628 38.5939 29.0234 38.5371 28.984 38.4803C28.8899 38.2522 28.7945 38.0247 28.6992 37.7971C28.4632 37.2339 28.2272 36.6707 28.0104 36.1002C27.9343 35.8999 27.8865 35.6888 27.8369 35.4695L27.8369 35.4695C27.8031 35.32 27.7684 35.1666 27.7232 35.0104C27.7001 34.9832 27.6992 34.9441 27.6981 34.8942L27.6974 34.8681C27.6622 34.6797 27.6292 34.5538 27.5962 34.4279ZM39.8057 38.2805C39.8193 38.2502 39.833 38.2198 39.9006 38.1262C39.9885 38.1141 40.0782 38.0943 40.168 38.0745C40.3713 38.0296 40.5747 37.9847 40.7557 38.0297C40.983 38.0861 41.1852 38.2438 41.4085 38.418L41.4086 38.4181C41.4734 38.4686 41.54 38.5205 41.6095 38.5718L41.6096 38.5719C42.4393 39.1627 43.269 39.7535 44.1391 40.4059C44.2198 40.4644 44.2998 40.524 44.3798 40.5836L44.3799 40.5837C44.5556 40.7146 44.7314 40.8455 44.9147 40.9649C45.5743 41.3944 46.1579 41.371 46.7241 40.9081C47.2708 40.4612 47.4055 39.8788 47.1263 39.1488C47.1263 39.1488 47.1313 39.1512 47.1325 39.0798C47.0965 38.9952 47.0605 38.9105 47.0188 38.8316C47.0188 38.8316 47.0269 38.8313 47.0277 38.7573C46.9915 38.6686 46.9553 38.5799 46.9166 38.4151C46.8455 38.2324 46.7744 38.0497 46.6975 37.8715C46.6975 37.8715 46.7049 37.872 46.7088 37.7991C46.6714 37.7145 46.6341 37.6299 46.592 37.5509C46.592 37.5509 46.5993 37.5522 46.6025 37.4788L46.6024 37.4788C46.5654 37.3937 46.5284 37.3086 46.4864 37.2292C46.4864 37.2292 46.4933 37.2321 46.4961 37.1547C46.4585 37.0621 46.4209 36.9695 46.3814 36.7995C46.3008 36.5547 46.2202 36.3098 46.1332 35.9859C46.0947 35.8726 46.0576 35.7587 46.0206 35.6448C45.9377 35.3901 45.8548 35.1353 45.7553 34.8872C45.5444 34.3611 45.6866 33.9947 46.1496 33.6672C47.1445 32.9636 48.126 32.241 49.1075 31.5185L49.1088 31.5175C49.3664 31.3279 49.6241 31.1382 49.8819 30.9489C50.3615 30.5968 50.6216 30.116 50.5094 29.5257C50.3901 28.8983 50.0473 28.4215 49.267 28.2606C47.4873 28.2635 45.7075 28.2665 43.8593 28.2608L43.8593 28.2608C43.7765 28.1894 43.6937 28.118 43.5816 27.9738C43.305 27.2172 43.0285 26.4606 42.7513 25.7014C42.7513 25.7014 42.7503 25.6989 42.754 25.629L42.754 25.6289C42.718 25.5465 42.6821 25.464 42.6413 25.382C42.6413 25.382 42.6454 25.3792 42.6492 25.3086C42.6128 25.2256 42.5765 25.1427 42.5333 25.0629C42.5333 25.0629 42.5401 25.0595 42.5441 24.9883L42.5441 24.9882C42.5074 24.905 42.4706 24.8217 42.4265 24.7422C42.4265 24.7422 42.4342 24.7396 42.438 24.6679L42.438 24.6678C42.4012 24.5843 42.3643 24.5008 42.3199 24.4212C42.3199 24.4212 42.3283 24.4197 42.3323 24.3475C42.2953 24.2637 42.2582 24.18 42.2137 24.1004C42.2137 24.1004 42.2223 24.0997 42.2266 24.027C42.1898 23.9428 42.1529 23.8586 42.1083 23.778C42.1083 23.778 42.1167 23.7795 42.1201 23.703L42.1201 23.7029C42.0833 23.6113 42.0464 23.5198 42.0066 23.3509C41.8687 22.8034 41.6169 22.3514 40.9581 22.1325C39.9745 21.9409 39.3324 22.2964 39.025 23.2281C38.8116 23.8749 38.6021 24.523 38.3927 25.1711L38.3926 25.1715L38.3923 25.1725C38.145 25.9378 37.8978 26.7031 37.6439 27.4662C37.568 27.6944 37.4174 27.8977 37.214 28.1422C37.1368 28.1516 37.0596 28.1634 36.9825 28.1753L36.9824 28.1753C36.8153 28.2009 36.6482 28.2264 36.481 28.2273C35.877 28.2304 35.273 28.2296 34.669 28.2288C33.8742 28.2277 33.0795 28.2266 32.2849 28.2344C32.0956 28.2362 31.9067 28.274 31.7007 28.3152L31.7006 28.3152C31.5895 28.3375 31.4735 28.3607 31.3497 28.3798L31.3497 28.3798C31.2667 28.439 31.1837 28.4982 31.0306 28.5834C30.2245 29.4349 30.2921 30.3196 31.2235 31.0143C31.3354 31.0979 31.449 31.1792 31.5651 31.2623L31.5652 31.2624L31.5653 31.2624C31.7715 31.41 31.9856 31.5633 32.2126 31.7447L32.2127 31.7448L32.2128 31.7448C32.8377 32.1892 33.4627 32.6337 34.1263 33.1382C34.4028 33.3283 34.6794 33.5184 34.9914 33.7629C35.0861 33.852 35.1807 33.941 35.2815 34.0984C35.318 34.1821 35.3545 34.2657 35.3823 34.4032C35.3856 34.4212 35.3889 34.4391 35.3766 34.5048C35.3766 34.5048 35.38 34.5551 35.3344 34.6103C35.3155 34.7015 35.2967 34.7927 35.2729 34.8854C35.2729 34.8854 35.2765 34.8892 35.2315 34.9416L35.2315 34.9416L35.2315 34.9417C35.2118 35.029 35.1921 35.1163 35.1663 35.2066C35.1663 35.2066 35.1704 35.212 35.1231 35.2728L35.1231 35.2728C34.922 35.9165 34.721 36.5602 34.4651 37.2568L34.4651 37.2569L34.4651 37.2569C34.4471 37.3553 34.4292 37.4538 34.4185 37.5509C34.4185 37.5509 34.4131 37.5459 34.3559 37.5901L34.3559 37.5901C34.3391 37.684 34.3223 37.7779 34.3128 37.8716C34.3128 37.8716 34.3069 37.8674 34.2536 37.9078C34.214 38.0348 34.1744 38.1618 34.105 38.3565C34.0987 38.405 34.0925 38.4536 34.0376 38.5523C34.0191 38.643 34.0006 38.7337 33.9341 38.8776C33.9026 38.9924 33.8712 39.1073 33.7997 39.2905C33.6454 40.0825 33.8401 40.6226 34.4189 41.008C34.9726 41.3767 35.4472 41.3679 36.0261 40.9735C36.0261 40.9735 36.0225 40.9803 36.0852 40.972C36.1341 40.9343 36.183 40.8967 36.2348 40.8622C36.2348 40.8622 36.2329 40.8586 36.2891 40.8475C36.3115 40.8172 36.3338 40.787 36.4241 40.7343L36.4246 40.7339L36.425 40.7336C37.3765 40.0342 38.328 39.3347 39.3031 38.6332C39.3031 38.6332 39.3129 38.6112 39.3716 38.5976C39.3985 38.5687 39.4253 38.5398 39.4928 38.506C39.5114 38.4991 39.5254 38.4882 39.5529 38.4669C39.567 38.4559 39.5846 38.4422 39.6082 38.4249L39.6082 38.4249C39.6559 38.3812 39.7036 38.3375 39.7571 38.3001C39.7571 38.3001 39.753 38.2927 39.8057 38.2805ZM46.3365 39.0583C46.2285 38.6905 46.1414 38.389 46.0551 38.0871C46.0559 38.0867 46.0548 38.0882 46.0548 38.0882C46.0303 38.0726 46.0138 38.0508 45.9796 37.9657C45.8853 37.6627 45.7993 37.3782 45.7138 37.0952C45.6489 36.8804 45.5843 36.6666 45.5165 36.4461C45.3611 35.9937 45.2196 35.5777 45.0855 35.1593C44.755 34.1283 44.9047 33.651 45.7737 33.0185C46.3346 32.6101 46.8976 32.2046 47.4606 31.7991C48.0749 31.3565 48.6893 30.9139 49.301 30.4678C50.0131 29.9484 49.9546 29.381 49.1099 28.9933C48.8463 28.9979 48.6336 28.9994 48.4208 28.9973C47.2782 28.9862 46.1355 28.9746 44.9929 28.963C44.6306 28.9594 44.2682 28.9557 43.9058 28.952C43.782 28.9204 43.6582 28.8887 43.5126 28.8309C43.4909 28.8047 43.4887 28.8018 43.4887 28.8018C43.4356 28.7817 43.3825 28.7616 43.3049 28.7181C43.2803 28.6946 43.275 28.6768 43.275 28.6768C43.2396 28.679 43.2119 28.6655 43.1811 28.6135L43.1796 28.6102C43.1702 28.5899 43.1672 28.5835 43.1353 28.5707C42.801 27.7886 42.5003 27.0199 42.1995 26.2483C42.1994 26.2453 42.2049 26.243 42.2049 26.243C42.1607 26.152 42.1164 26.0609 42.0385 25.9046C41.9358 25.59 41.841 25.2829 41.748 24.9818C41.5881 24.4636 41.4335 23.9631 41.2535 23.4719C41.179 23.2685 40.9978 23.1042 40.8124 22.936C40.7666 22.8945 40.7205 22.8527 40.6758 22.8101C40.1473 22.7694 39.8831 23.0002 39.7401 23.4585C39.3893 24.5832 39.0261 25.7039 38.6629 26.8247C38.5607 27.1399 38.4585 27.4552 38.3566 27.7705C38.172 28.3419 37.8634 28.7943 37.2227 28.9161C37.1568 28.9245 37.0909 28.9352 37.025 28.9458C36.8826 28.9687 36.7403 28.9916 36.5979 28.9923C35.8467 28.9956 35.0956 28.9966 34.3355 28.9977C33.5293 28.9989 32.713 29 31.8758 29.0039C31.7558 29.0159 31.7147 29.0207 31.6737 29.0256C31.6591 29.0587 31.6345 29.0807 31.5689 29.1062C31.5605 29.1101 31.5524 29.113 31.5447 29.1158C31.5242 29.1231 31.5066 29.1294 31.4927 29.1518C31.0962 29.7275 31.1409 30.0394 31.652 30.4261C31.9316 30.6377 32.2116 30.8488 32.5264 31.0694C32.8047 31.2801 33.0774 31.4893 33.3492 31.6978C33.7537 32.008 34.1563 32.3169 34.5727 32.627C35.9353 33.2767 36.1975 33.7994 35.9 35.1997C35.8855 35.2608 35.8709 35.322 35.8339 35.429C35.8115 35.4749 35.7952 35.5188 35.7952 35.5188C35.7815 35.5799 35.7679 35.6409 35.7278 35.7208C35.7046 35.7372 35.7047 35.7408 35.7058 35.7695C35.7059 35.7735 35.7061 35.7779 35.7062 35.783C35.4588 36.5792 35.2104 37.334 34.9619 38.0887L34.9619 38.0887C34.9408 38.1786 34.9196 38.2685 34.8732 38.3821C34.848 38.4059 34.8529 38.4092 34.8529 38.4092C34.733 38.793 34.6132 39.1769 34.4584 39.614C34.5247 40.3117 34.9434 40.5829 35.6296 40.4083C36.7291 39.6111 37.8036 38.8379 38.8809 38.0672C38.8837 38.0697 38.8798 38.0762 38.8798 38.0762C38.9032 38.0451 38.9266 38.014 38.9796 37.9809C39.0092 37.979 39.0009 37.9781 39.0009 37.9781C39.0222 37.9482 39.0435 37.9183 39.0911 37.8809C39.1174 37.8734 39.1186 37.8765 39.1186 37.8765C39.1694 37.8362 39.2202 37.7959 39.3361 37.7412C40.1985 37.0309 41.4744 37.1992 42.0409 38.0706C42.3207 38.2523 42.579 38.4353 42.835 38.6167C42.8855 38.6525 42.9359 38.6882 42.9864 38.7239C43.5455 39.1186 44.1059 39.5115 44.7013 39.9142C44.8507 40.0056 44.9654 40.0869 45.0785 40.1704C45.0877 40.1772 45.0969 40.1841 45.1062 40.1909C45.4121 40.4173 45.7164 40.6424 46.1275 40.4038C46.5429 40.1627 46.5268 39.782 46.4663 39.3824C46.4667 39.38 46.4714 39.3791 46.4714 39.3791L46.4713 39.379C46.4334 39.2942 46.3954 39.2094 46.3365 39.0583Z" fill="url(#paint0_linear_187_579)"/>
<defs>
<linearGradient id="paint0_linear_187_579" x1="55.5" y1="51.5" x2="33" y2="24.5" gradientUnits="userSpaceOnUse">
<stop stop-color="#692C91"/>
<stop offset="1" stop-color="#9854D9"/>
</linearGradient>
</defs>
</svg>
