<svg width="24" height="25" viewBox="0 0 24 25" fill="none" xmlns="http://www.w3.org/2000/svg">
<path d="M10 15.6252L15.19 12.5002L10 9.37516V15.6252ZM21.56 7.46891C21.69 7.9585 21.78 8.61475 21.84 9.44808C21.91 10.2814 21.94 11.0002 21.94 11.6252L22 12.5002C22 14.7814 21.84 16.4585 21.56 17.5314C21.31 18.4689 20.73 19.0731 19.83 19.3335C19.36 19.4689 18.5 19.5627 17.18 19.6252C15.88 19.6981 14.69 19.7293 13.59 19.7293L12 19.7918C7.81 19.7918 5.2 19.6252 4.17 19.3335C3.27 19.0731 2.69 18.4689 2.44 17.5314C2.31 17.0418 2.22 16.3856 2.16 15.5522C2.09 14.7189 2.06 14.0002 2.06 13.3752L2 12.5002C2 10.2189 2.16 8.54183 2.44 7.46891C2.69 6.53141 3.27 5.92725 4.17 5.66683C4.64 5.53141 5.5 5.43766 6.82 5.37516C8.12 5.30225 9.31 5.271 10.41 5.271L12 5.2085C16.19 5.2085 18.8 5.37516 19.83 5.66683C20.73 5.92725 21.31 6.53141 21.56 7.46891Z" fill="white"/>
</svg>
